P3
45 74
255
255 255 255 255 255 255 255 255 255 255 255 255 255 255 255 255 255 255 255 255 255 255 255 255 255 255 255 255 255 255 255 255 255 255 255 255 255 255 255 255 255 255 255 255 255 255 255 255 255 255 255 255 255 255 255 255 255 255 255 255 255 255 255 255 255 255 255 255 255 255 255 255 255 255 255 255 255 255 255 255 255 255 255 255 255 255 255 255 255 255 255 255 255 255 255 255 255 255 255 255 255 255 255 255 255 255 255 255 255 255 255 255 255 255 255 255 255 255 255 255 255 255 255 255 255 255 255 255 255 255 255 255 255 255 255 
255 255 255 254 255 254 252 252 255 255 251 255 255 255 255 255 255 255 248 255 255 164 105 88 156 48 33 158 53 38 160 54 38 161 46 39 161 51 36 154 68 53 181 143 137 255 255 255 255 255 255 255 255 255 249 252 253 255 253 252 253 255 254 255 255 255 255 255 255 255 255 255 255 255 255 255 255 255 255 255 255 255 255 255 255 255 255 255 255 255 255 255 255 255 255 255 255 255 255 255 255 255 255 255 255 255 255 255 255 255 255 255 255 255 255 255 255 255 255 255 255 255 255 255 255 255 255 255 255 255 255 255 255 255 255 
255 255 255 255 251 252 253 255 255 255 255 255 247 244 240 148 80 65 157 37 24 214 40 37 240 31 26 239 30 25 241 31 25 239 26 26 245 31 23 236 32 24 212 48 34 140 53 44 182 148 137 196 177 176 255 255 255 251 255 255 255 255 253 255 255 255 255 255 255 255 255 255 255 255 255 255 255 255 255 255 255 255 255 255 255 255 255 255 255 255 255 255 255 255 255 255 255 255 255 255 255 255 255 255 255 255 255 255 255 255 255 255 255 255 255 255 255 255 255 255 255 255 255 255 255 255 255 255 255 255 255 255 255 255 255 
255 255 255 249 250 255 255 255 255 188 153 143 145 39 32 232 54 41 241 31 23 243 35 22 234 37 27 236 37 27 239 36 26 235 39 27 237 38 26 238 38 26 242 30 23 233 43 30 221 29 9 141 0 0 233 221 212 255 255 255 255 254 255 255 255 255 255 255 255 255 255 255 255 255 255 255 255 255 255 255 255 255 255 255 255 255 255 255 255 255 255 255 255 255 255 255 255 255 255 255 255 255 255 255 255 255 255 255 255 255 255 255 255 255 255 255 255 255 255 255 255 255 255 255 255 255 255 255 255 255 255 255 255 255 255 
255 255 255 255 255 255 197 176 164 182 48 35 244 36 23 242 29 23 236 35 28 235 40 27 234 32 29 237 35 26 244 38 23 236 31 28 233 30 30 233 30 30 239 31 26 237 33 27 241 31 28 237 35 33 141 29 15 222 203 188 255 255 255 255 255 255 252 255 255 252 252 254 253 253 255 254 252 255 254 251 253 254 254 254 255 255 255 255 255 255 255 255 255 255 255 255 255 255 255 255 255 255 255 255 255 255 255 255 255 255 255 255 255 255 255 255 255 255 255 255 255 255 255 255 255 255 255 255 255 255 255 255 255 255 255 
255 255 255 255 255 255 182 136 126 220 18 9 244 36 24 236 36 27 237 35 26 237 35 26 237 36 26 235 33 28 230 30 32 244 37 23 241 37 25 235 37 28 238 38 25 240 37 25 237 37 26 236 48 29 156 37 23 114 15 7 149 62 53 167 118 98 255 255 255 252 255 255 255 255 255 253 255 253 250 255 252 254 255 254 255 255 255 255 255 255 255 255 255 255 255 255 255 255 255 255 255 255 255 255 255 255 255 255 255 255 255 255 255 255 255 255 255 255 255 255 255 255 255 255 255 255 255 255 255 255 255 255 255 255 255 
255 255 255 255 255 255 176 130 121 224 30 22 241 35 24 237 36 26 237 36 26 234 35 28 232 35 29 246 35 22 245 36 22 232 26 18 235 28 19 244 40 28 239 41 32 240 31 31 239 40 34 167 32 20 222 164 191 254 196 253 255 196 249 159 76 96 136 50 36 194 154 139 255 255 255 255 255 255 249 255 255 253 255 254 255 255 255 255 255 255 255 255 255 255 255 255 255 255 255 255 255 255 255 255 255 255 255 255 255 255 255 255 255 255 255 255 255 255 255 255 255 255 255 255 255 255 255 255 255 255 255 255 255 255 255 
255 255 255 255 255 255 227 217 214 175 15 6 241 39 27 232 33 29 235 35 29 246 36 23 241 27 23 216 50 31 141 40 27 193 161 160 168 112 105 133 2 0 153 26 13 161 15 10 145 21 9 190 133 145 241 187 249 242 169 226 234 177 230 245 183 241 255 199 238 176 96 118 150 57 46 129 52 37 254 243 236 255 255 255 255 255 255 255 255 255 255 255 255 255 255 255 253 254 253 253 254 253 255 255 254 255 255 252 253 255 255 255 255 255 255 255 255 255 255 255 255 255 255 255 255 255 255 255 255 255 255 255 255 255 255 
255 255 255 255 255 255 253 255 255 163 4 0 247 36 26 248 33 21 242 31 24 223 29 18 191 52 33 174 133 124 255 255 255 255 255 255 168 116 98 221 39 26 245 42 28 248 39 27 224 35 13 148 68 76 251 195 242 238 173 228 239 176 227 239 177 226 238 176 228 245 184 238 250 193 248 230 169 210 123 31 23 189 153 138 161 106 96 149 57 45 134 44 27 238 236 237 255 255 255 249 255 255 253 255 255 255 255 253 253 255 254 255 255 255 255 255 255 255 255 255 255 255 255 255 255 255 255 255 255 255 255 255 255 255 255 
255 255 255 255 255 255 250 255 255 165 5 0 235 36 31 237 36 23 227 42 26 198 117 110 255 255 255 255 255 255 255 255 255 207 186 183 107 0 0 219 39 37 243 30 26 237 35 28 225 41 27 162 19 3 206 137 163 231 180 243 243 174 224 238 177 227 238 177 227 239 177 226 240 168 227 246 171 233 255 201 255 161 74 71 217 38 18 241 27 24 235 47 31 134 10 0 138 71 59 255 255 255 255 255 255 253 254 254 255 255 254 255 255 255 255 255 255 255 255 255 255 255 255 255 255 255 255 255 255 255 255 255 255 255 255 
255 255 255 255 255 255 249 255 255 165 5 0 247 30 23 231 54 41 151 93 85 255 255 255 249 251 253 254 255 255 255 255 255 155 102 90 208 61 44 243 32 27 241 35 25 245 40 22 236 36 29 217 41 23 174 91 98 255 204 255 244 184 244 245 179 230 239 173 227 236 175 228 244 179 229 240 175 232 255 207 255 139 35 32 250 40 24 230 31 31 243 34 24 234 43 35 172 22 2 142 62 42 253 255 251 255 255 255 253 255 254 255 255 255 255 255 255 255 255 255 255 255 255 255 255 255 255 255 255 255 255 255 255 255 255 
255 255 255 253 255 255 246 255 255 174 3 0 254 51 47 130 12 0 241 239 227 255 255 255 255 255 255 235 231 230 147 78 65 182 32 21 243 32 27 241 35 24 230 37 30 227 32 32 233 42 31 171 22 10 115 0 0 127 28 22 157 57 68 218 154 194 250 190 250 250 191 242 218 157 196 232 172 204 104 11 0 176 33 17 240 34 32 235 36 27 237 28 28 240 26 27 246 46 34 152 26 6 171 105 96 255 255 255 254 255 253 254 255 255 255 255 255 255 255 255 255 255 255 255 255 255 255 255 255 255 255 255 255 255 255 
255 255 255 255 255 255 232 224 225 109 0 0 115 0 0 250 248 238 249 255 255 254 251 254 255 255 255 185 149 144 205 17 8 244 32 28 243 27 25 232 35 29 239 37 24 245 31 24 244 46 40 168 11 0 170 113 104 255 255 255 252 254 248 161 92 69 160 73 64 149 51 50 165 65 70 176 87 112 217 154 182 180 14 0 248 33 27 234 39 27 239 33 26 235 32 28 246 28 23 234 44 38 134 2 0 226 218 217 253 255 255 255 255 255 255 255 255 255 255 255 255 255 255 255 255 255 255 255 255 255 255 255 255 255 255 
255 255 255 250 254 252 255 255 252 255 255 255 255 255 255 255 255 255 253 252 253 255 252 254 251 254 255 249 249 239 134 9 0 248 33 20 240 31 20 244 28 18 241 42 30 198 14 1 159 25 5 204 182 177 255 255 255 255 255 255 252 255 254 255 255 255 143 75 50 225 159 188 243 190 250 255 185 238 226 175 223 181 5 0 239 31 32 231 42 28 245 34 23 232 37 29 240 38 25 242 34 26 218 38 35 131 29 9 237 225 222 255 255 255 255 255 255 255 255 255 255 255 255 255 255 255 255 255 255 255 255 255 255 255 255 
255 255 255 255 255 254 255 255 255 255 255 255 254 255 255 255 255 255 255 255 255 255 254 253 253 255 254 255 255 255 200 167 152 155 84 74 155 94 78 155 97 80 151 89 79 204 181 179 171 141 124 197 184 184 234 232 230 251 255 254 255 255 255 255 255 255 148 38 48 250 188 250 242 177 226 236 177 233 229 176 214 173 9 0 241 38 30 233 33 29 240 38 24 235 35 27 236 37 27 235 36 27 240 34 26 235 41 32 125 25 8 183 149 138 248 255 255 255 255 255 254 253 255 255 255 255 255 255 255 255 255 255 255 255 255 
255 255 255 255 255 255 255 255 255 255 255 255 255 255 255 255 255 255 255 255 255 254 255 254 254 255 254 252 253 253 247 255 255 255 255 255 255 255 255 255 255 255 255 255 255 133 59 50 195 28 17 216 22 2 176 10 0 134 31 15 169 130 116 205 190 173 159 61 68 245 180 242 242 176 225 239 176 232 236 180 216 177 7 0 244 38 28 233 33 29 239 38 25 236 35 27 237 35 27 236 37 27 241 36 24 243 31 25 223 40 36 117 0 0 209 171 154 255 255 255 255 254 254 255 255 255 255 255 255 255 255 255 255 255 255 
255 255 255 255 255 255 255 255 255 255 255 255 255 255 255 255 255 255 255 255 255 254 254 255 252 253 254 255 255 251 255 255 254 247 255 254 200 172 161 133 32 13 158 23 9 231 40 29 236 61 52 169 31 21 223 46 41 255 34 28 237 31 15 143 0 0 211 141 167 240 178 237 239 176 226 244 180 235 196 131 166 204 31 10 247 36 24 233 33 29 239 38 25 236 35 27 237 35 26 236 36 27 235 37 28 237 36 26 247 33 24 187 55 49 103 12 0 252 245 240 255 255 255 255 255 255 255 255 255 255 255 255 255 255 255 
255 255 255 255 255 255 255 255 255 255 255 255 255 255 255 255 255 255 255 255 255 255 255 254 255 255 254 252 255 255 255 255 255 233 233 225 155 0 0 212 71 61 134 8 0 171 34 11 142 53 40 134 43 25 146 29 12 146 25 13 228 62 35 188 27 9 211 155 202 244 178 230 243 179 224 240 183 237 196 127 159 202 21 1 241 36 27 236 35 27 236 36 27 237 35 27 237 36 27 237 35 26 235 35 27 235 37 27 238 35 26 244 43 30 148 16 0 163 124 102 255 255 255 255 255 252 254 253 255 255 253 254 255 255 255 
255 255 255 255 255 255 255 255 255 255 255 255 255 255 255 255 255 255 255 255 255 255 255 255 255 255 255 255 255 255 255 255 255 193 165 159 204 39 17 131 34 16 196 177 156 169 132 129 165 39 28 239 53 36 238 42 27 193 66 55 113 17 11 141 26 0 222 156 190 245 176 232 235 178 228 244 189 243 168 88 105 227 40 23 238 35 26 237 36 26 237 35 27 237 36 27 237 36 27 237 36 27 237 35 26 237 35 26 237 35 26 238 30 28 228 54 45 116 0 0 220 210 208 255 255 255 254 255 254 255 255 254 255 255 255 
255 255 255 255 255 255 255 255 255 255 255 255 255 255 255 255 255 255 255 255 255 255 255 255 255 255 255 255 255 255 255 255 255 236 237 235 137 37 18 143 50 41 168 37 29 231 35 26 221 40 34 141 14 11 241 46 34 247 30 20 230 58 43 131 11 0 234 174 215 242 175 230 234 175 229 255 201 252 134 25 13 239 40 28 237 35 26 237 36 27 237 36 27 237 36 27 237 36 27 237 36 27 237 36 27 237 36 27 237 36 26 235 33 28 245 31 27 210 29 13 194 153 142 252 255 255 255 255 252 251 255 255 255 255 255 
255 255 255 255 255 255 255 255 255 255 255 255 255 255 255 255 255 255 255 255 255 255 255 255 255 255 255 255 255 255 255 255 255 249 255 255 115 7 0 244 54 41 255 27 18 208 26 21 139 73 59 193 164 148 158 29 12 217 36 42 248 33 22 149 30 26 248 193 251 241 174 226 243 183 236 194 124 151 191 35 17 239 35 26 237 35 26 237 36 27 237 36 27 237 36 27 237 36 27 237 36 27 237 36 27 236 35 27 237 36 26 238 40 25 239 28 26 222 40 24 124 33 12 255 255 255 254 255 251 250 255 254 255 255 255 
255 255 255 255 255 255 255 255 255 255 255 255 255 255 255 255 255 255 255 255 255 255 255 255 255 255 255 255 255 255 255 255 255 255 255 255 192 157 149 126 27 15 150 31 25 120 27 5 255 255 255 255 255 255 224 213 211 151 23 5 227 52 30 172 79 85 244 183 246 242 173 225 247 187 240 166 83 91 230 35 19 238 33 26 236 36 27 237 36 27 237 36 27 237 36 27 237 36 27 237 36 27 237 36 27 236 35 27 237 36 26 236 38 27 234 30 30 239 45 27 117 0 0 234 222 219 255 255 255 252 255 254 255 255 255 
255 255 255 255 255 255 255 255 255 255 255 255 255 255 255 255 255 255 255 255 255 255 255 255 255 255 255 255 255 255 255 255 255 253 255 255 255 255 255 255 255 255 255 255 255 255 255 255 255 255 255 107 21 0 232 230 225 253 255 255 156 83 69 163 68 76 245 184 245 242 173 226 244 184 244 174 82 93 233 30 16 239 33 26 236 36 26 237 35 27 236 35 27 237 35 27 236 36 26 236 36 27 236 36 26 237 36 27 237 35 26 233 36 28 237 34 27 247 38 28 159 14 0 180 138 128 255 255 255 255 255 254 255 255 255 
255 255 255 255 255 255 255 255 255 255 255 255 255 255 255 255 255 255 255 255 255 255 255 255 255 255 255 255 255 255 255 254 255 251 250 254 254 252 254 251 255 255 255 255 255 216 203 204 141 33 21 214 57 44 147 34 21 198 176 166 213 192 188 190 104 114 242 178 239 240 174 226 238 183 246 173 82 95 231 30 17 235 31 29 238 36 26 237 36 26 240 37 25 238 36 26 247 33 27 255 32 27 252 32 27 242 34 26 237 38 26 243 35 24 239 37 25 242 33 29 170 15 4 176 111 96 255 255 255 254 254 253 255 255 255 
255 255 255 255 255 255 255 255 255 255 255 255 255 255 255 255 255 255 255 255 255 255 255 255 255 255 255 255 255 255 255 254 255 252 253 254 255 255 255 217 193 179 143 50 36 178 23 2 187 33 22 160 0 0 214 41 32 214 26 7 153 28 12 204 134 156 242 178 238 239 176 227 246 186 242 171 84 95 234 32 15 240 32 26 235 33 28 227 32 32 248 29 27 247 43 37 157 30 21 88 9 0 113 17 8 201 38 30 255 35 31 235 31 29 227 32 32 245 33 25 206 40 29 123 35 15 255 255 255 255 252 255 255 255 255 
255 255 255 255 255 255 255 255 255 255 255 255 255 255 255 255 255 255 255 255 255 255 255 255 255 255 255 255 255 255 255 255 255 253 254 254 255 255 255 163 118 113 140 25 12 169 28 7 172 117 111 246 255 249 164 103 92 141 23 15 142 31 16 255 205 250 234 174 231 242 174 225 246 186 242 170 84 96 233 32 16 239 35 27 236 30 28 255 36 22 180 45 32 0 0 0 33 50 56 139 148 141 102 114 114 0 0 2 60 5 0 250 48 33 250 30 22 236 33 29 228 40 24 123 17 0 255 255 255 252 255 255 255 255 255 
255 255 255 255 255 255 255 255 255 255 255 255 255 255 255 255 255 255 255 255 255 255 255 255 255 255 255 255 255 255 254 254 255 253 252 254 253 255 250 255 255 255 238 235 231 221 207 202 255 255 255 248 252 255 255 255 255 241 244 237 149 54 64 252 187 240 238 176 226 241 173 226 247 185 242 171 84 95 234 32 15 237 32 28 247 30 25 205 49 33 0 0 0 208 215 213 255 255 255 255 255 255 255 255 255 255 255 255 61 73 71 65 6 4 255 45 28 236 29 28 238 44 33 119 0 0 210 200 191 255 255 255 255 255 255 
255 255 255 255 255 255 255 255 255 255 255 255 255 255 255 255 255 255 255 255 255 255 255 255 255 255 255 255 255 255 255 255 255 255 255 255 255 255 255 255 255 255 255 255 255 255 255 255 255 255 255 255 252 253 255 255 255 175 116 98 225 151 191 240 180 232 238 177 227 238 177 227 247 185 242 170 84 96 233 32 16 237 35 28 255 29 29 71 8 3 111 123 125 255 255 255 253 253 253 255 255 255 255 255 255 254 254 254 255 255 255 0 0 0 220 43 29 237 26 31 247 45 27 125 0 0 190 150 139 255 255 255 255 255 255 
255 255 255 255 255 255 255 255 255 255 255 255 255 255 255 255 255 255 255 255 255 255 255 255 255 255 255 255 255 255 255 255 255 255 255 255 255 255 255 255 255 255 255 255 255 255 255 255 255 255 255 251 255 255 255 255 255 119 38 27 253 194 248 238 176 227 238 177 227 239 176 227 247 185 242 171 84 95 233 31 15 244 38 23 238 46 39 0 0 0 233 241 241 255 255 255 255 255 255 17 17 17 99 99 99 255 255 255 255 255 255 75 93 94 121 18 13 254 39 24 246 40 28 151 21 15 129 23 0 255 255 255 255 255 255 
255 255 255 255 255 255 255 255 255 255 255 255 255 255 255 255 255 255 255 255 255 255 255 255 255 255 255 255 255 255 255 255 255 255 255 255 255 255 255 255 255 255 255 255 255 255 255 255 255 255 255 255 255 254 255 253 253 151 65 73 248 184 241 238 177 226 238 176 227 239 177 226 247 186 242 170 84 96 233 32 16 235 32 29 253 46 32 0 0 0 234 234 237 255 255 255 210 209 210 0 0 0 172 172 172 255 255 255 255 255 255 69 84 94 135 22 12 246 34 29 241 33 29 202 40 26 131 46 32 193 159 150 255 255 255 
255 255 255 255 255 255 255 255 255 255 255 255 255 255 255 255 255 255 255 255 255 255 255 255 255 255 255 255 255 255 255 255 255 255 255 255 255 255 255 255 255 255 255 255 255 255 255 255 255 255 255 255 255 255 255 255 254 154 59 71 248 183 243 239 170 228 255 193 240 238 168 229 247 185 242 171 84 95 233 32 15 240 31 27 255 37 25 56 2 2 121 137 132 255 255 255 255 255 255 255 255 255 255 255 255 253 253 253 255 255 255 0 0 0 215 44 32 245 34 24 233 34 30 230 45 28 127 5 0 201 160 153 255 255 255 
255 255 255 255 255 255 255 255 255 255 255 255 255 255 255 255 255 255 255 255 255 255 255 255 255 255 255 255 255 255 255 255 255 255 255 255 255 255 255 255 255 255 255 255 255 255 255 255 255 255 255 255 255 255 255 255 253 154 59 70 248 183 243 253 195 242 85 60 76 253 189 240 247 185 242 170 84 96 234 32 16 234 33 29 239 33 29 229 52 27 0 0 0 190 197 193 255 255 255 255 255 255 255 255 255 255 255 255 35 54 59 86 11 4 255 45 27 239 33 27 233 33 28 245 44 28 160 18 5 179 132 121 255 255 255 
255 255 255 255 255 255 255 255 255 255 255 255 255 255 255 255 255 255 255 255 255 255 255 255 255 255 255 255 255 255 255 255 255 255 255 255 255 255 255 255 255 255 255 255 255 255 255 255 255 255 255 255 255 255 255 255 253 154 59 71 249 182 242 253 197 244 52 48 53 255 190 244 247 184 242 170 84 95 234 31 15 233 35 30 238 32 27 254 34 23 187 40 37 0 0 0 23 38 39 115 126 132 87 100 103 0 0 0 82 8 5 243 46 36 244 30 24 238 32 27 235 35 28 250 36 26 161 8 0 183 137 123 255 255 255 
255 255 255 255 255 255 255 255 255 255 255 255 255 255 255 255 255 255 255 255 255 255 255 255 255 255 255 255 255 255 255 255 255 255 255 255 255 255 255 255 255 255 255 255 255 255 255 255 255 255 255 255 255 253 253 255 255 154 58 54 244 188 244 255 184 246 58 52 53 255 187 244 244 190 242 174 84 94 236 36 15 235 31 28 238 35 26 234 32 28 253 33 21 249 49 33 155 27 22 104 8 9 115 12 10 205 44 33 255 41 25 241 33 25 235 34 28 237 35 27 236 36 27 241 35 27 206 19 7 178 137 122 255 255 255 
255 255 255 255 255 255 255 255 255 255 255 255 255 255 255 255 255 255 255 255 255 255 255 255 255 255 255 255 255 255 255 255 255 255 255 255 255 255 255 255 255 255 255 255 255 255 255 255 255 255 255 253 255 254 255 255 255 144 52 46 250 190 241 255 182 247 62 53 53 255 189 244 244 187 242 161 78 94 229 47 25 238 31 26 236 36 26 237 36 26 231 34 29 240 34 25 255 41 20 255 48 24 255 46 22 252 38 20 231 33 30 236 36 27 237 36 26 237 36 26 236 35 27 241 37 27 207 14 5 175 139 127 255 255 255 
255 255 255 255 255 255 255 255 255 255 255 255 255 255 255 255 255 255 255 255 255 255 255 255 255 255 255 255 255 255 255 255 255 255 255 255 255 255 255 255 255 255 255 255 255 255 255 255 255 255 255 254 255 255 240 230 228 149 61 66 247 186 242 255 182 246 61 51 52 255 188 244 239 175 236 219 161 186 183 23 9 247 34 25 236 36 27 236 36 27 238 36 26 239 36 26 232 35 29 228 36 31 228 35 31 235 35 27 240 36 25 237 36 27 236 36 27 237 36 26 236 35 27 244 37 26 192 8 2 211 193 186 255 255 255 
255 255 255 255 255 255 255 255 255 255 255 255 255 255 255 255 255 255 255 255 255 255 255 255 255 255 255 255 255 255 255 255 255 255 255 255 255 255 255 255 255 255 255 255 255 255 255 255 255 255 255 255 255 255 213 193 184 194 111 129 242 181 240 255 186 244 56 42 49 252 190 241 241 172 233 231 176 211 166 10 0 247 35 26 236 36 27 237 36 27 236 36 27 236 35 27 237 34 26 240 34 26 239 34 26 236 34 26 236 36 27 236 36 27 237 36 27 237 36 26 235 35 28 240 37 27 196 12 1 205 193 187 255 255 255 
255 255 255 255 255 255 255 255 255 255 255 255 255 255 255 255 255 255 255 255 255 255 255 255 255 255 255 255 255 255 255 255 255 255 255 255 255 255 255 255 255 255 255 255 255 255 255 255 255 255 255 255 255 255 215 200 188 191 102 130 245 178 237 255 191 242 64 45 60 249 194 240 242 173 232 227 169 209 171 8 0 245 36 28 236 36 27 237 36 27 237 36 27 237 36 27 236 36 27 236 36 27 236 36 27 237 36 27 237 36 27 237 36 27 237 36 27 237 36 26 236 35 27 236 38 30 204 13 0 205 194 187 255 255 255 
255 255 255 255 255 255 255 255 255 255 255 255 255 255 255 255 255 255 255 255 255 255 255 255 255 255 255 255 255 255 255 255 255 255 255 255 255 255 255 255 255 255 255 255 255 255 255 255 255 255 255 255 255 255 215 200 188 191 102 130 244 179 237 255 190 242 64 45 59 249 193 240 242 173 232 227 170 209 171 8 0 245 36 27 236 35 27 236 35 27 236 35 27 236 35 27 237 36 26 237 36 26 237 36 26 237 36 26 237 36 26 236 36 27 236 36 27 237 36 26 236 35 27 236 38 30 202 12 0 205 195 188 255 255 255 
255 255 255 255 255 255 255 255 255 255 255 255 255 255 255 255 255 255 255 255 255 255 255 255 255 255 255 255 255 255 255 255 255 255 255 255 255 255 255 255 255 255 255 255 255 255 255 255 255 255 255 255 255 255 217 199 189 192 104 128 246 178 236 255 190 242 64 45 59 249 194 240 243 174 231 228 170 209 172 10 0 242 35 29 238 37 25 237 38 26 238 37 25 238 37 26 235 35 27 232 33 30 237 35 27 233 33 29 234 33 29 238 35 26 237 36 27 236 36 26 236 34 27 238 38 28 207 21 11 196 174 168 255 255 255 
255 255 255 255 255 255 255 255 255 255 255 255 255 255 255 255 255 255 255 255 255 255 255 255 255 255 255 255 255 255 255 255 255 255 255 255 255 255 255 255 255 255 255 255 255 255 255 255 255 255 255 255 255 255 215 178 172 187 110 130 244 179 238 255 190 242 64 45 59 249 193 241 242 176 231 227 173 209 172 13 0 244 36 28 236 35 27 230 35 30 236 29 30 249 33 29 255 44 27 252 42 33 255 37 28 250 36 26 241 38 25 240 36 25 238 35 26 238 36 26 235 33 28 241 37 25 217 28 23 177 128 119 255 255 255 
255 255 255 255 255 255 255 255 255 255 255 255 255 255 255 255 255 255 255 255 255 255 255 255 255 255 255 255 255 255 255 255 255 255 255 255 255 255 255 255 255 255 255 255 255 255 255 255 255 255 255 255 255 255 141 74 59 255 191 231 235 173 231 255 190 242 64 45 59 249 193 240 238 176 234 234 179 213 168 11 0 243 39 27 235 31 29 255 30 19 245 47 30 117 17 11 0 0 0 0 0 0 23 0 0 119 22 14 250 38 36 238 36 29 235 36 28 239 36 26 234 33 29 244 37 23 228 24 13 186 132 120 255 255 255 
255 255 255 255 255 255 255 255 255 255 255 255 255 255 255 255 255 255 255 255 255 255 255 255 255 255 255 255 255 255 255 255 255 255 255 255 254 255 255 254 255 255 255 255 255 255 255 255 255 255 255 255 255 255 155 74 59 247 179 230 242 173 228 255 190 242 55 38 49 249 193 240 248 182 237 183 112 138 192 30 11 243 38 25 242 31 27 222 44 32 0 0 0 64 81 80 216 222 221 247 247 255 208 211 215 48 68 68 2 0 0 237 40 36 236 34 26 239 36 26 235 33 28 241 37 25 220 24 16 181 131 120 255 255 255 
255 255 255 255 255 255 255 255 255 255 255 255 255 255 255 255 255 255 255 255 255 255 255 255 255 255 255 255 255 255 255 255 254 253 253 254 251 255 254 253 255 251 255 255 252 255 255 253 255 255 254 255 255 255 180 130 123 218 143 180 243 174 234 245 185 233 170 127 154 245 180 233 247 185 242 169 81 91 236 32 16 239 32 27 248 34 35 41 0 0 113 127 129 255 255 255 255 255 255 255 255 255 255 255 255 255 255 255 89 102 103 51 2 0 255 42 24 226 31 33 239 34 26 241 37 25 221 24 16 184 131 120 255 255 255 
255 255 255 255 255 255 255 255 255 255 255 255 255 255 255 255 255 255 255 255 255 255 255 255 255 255 255 255 255 255 254 255 255 250 255 255 255 254 252 251 255 255 252 255 255 249 254 255 253 255 255 255 255 255 124 62 49 249 189 228 243 172 229 238 170 228 245 183 234 238 168 228 247 185 242 170 84 96 234 32 16 237 35 29 218 38 20 0 8 15 255 255 255 254 253 254 255 255 255 179 179 179 253 253 253 254 254 254 255 255 255 0 0 0 223 50 34 235 33 30 241 33 25 241 37 26 221 24 16 184 131 120 255 255 255 
255 255 255 255 255 255 255 255 255 255 255 255 255 255 255 255 255 255 255 255 255 255 255 255 255 255 255 255 255 255 255 255 255 255 255 255 255 255 255 222 208 203 235 228 218 255 255 255 255 255 255 255 255 255 201 162 145 188 109 136 244 182 237 238 175 226 239 173 228 239 175 226 247 185 242 171 84 95 234 32 15 246 29 29 164 26 15 57 70 69 255 255 255 255 255 255 233 233 234 0 0 0 127 127 127 255 255 255 255 255 255 27 45 47 187 31 17 241 37 28 241 34 25 241 37 25 221 24 16 184 131 120 255 255 255 
255 255 255 255 255 255 255 255 255 255 255 255 255 255 255 255 255 255 255 255 255 255 255 255 255 255 255 255 255 255 255 255 255 255 255 255 133 62 45 164 35 20 147 19 8 208 179 168 217 217 220 156 82 67 153 32 17 162 66 64 247 193 249 239 177 226 238 177 226 239 176 226 247 185 242 170 84 96 233 32 16 247 29 28 184 32 28 0 19 14 255 255 255 255 255 255 255 255 255 85 84 84 224 220 225 255 253 255 255 255 255 0 0 0 227 43 30 235 32 30 241 34 25 241 37 26 221 24 16 184 131 120 255 255 255 
255 255 255 255 255 255 255 255 255 255 255 255 255 255 255 255 255 255 255 255 255 255 255 255 255 255 255 255 255 255 255 255 255 255 255 255 191 159 154 147 36 14 193 28 11 182 24 11 171 7 0 232 46 28 207 13 4 138 21 9 236 167 211 240 179 230 238 177 227 239 176 227 247 185 242 171 84 95 234 31 15 237 38 26 255 42 28 10 0 0 145 163 157 255 255 255 255 255 255 255 255 255 255 255 255 255 255 255 98 115 113 49 0 0 252 45 29 241 32 25 238 34 26 241 37 25 221 24 16 184 131 120 255 255 255 
255 255 255 255 255 255 255 255 255 255 255 255 255 255 255 255 255 255 255 255 255 255 255 255 255 255 255 255 255 255 255 255 255 252 255 254 252 255 255 255 255 255 187 164 159 141 29 18 210 54 36 140 65 57 214 192 182 184 157 133 217 147 180 241 180 233 238 177 227 239 176 226 247 185 242 170 84 96 233 32 16 237 29 28 229 40 32 221 37 37 0 0 0 86 95 94 225 233 234 255 255 255 226 228 223 58 80 81 6 0 0 229 45 35 243 33 26 243 35 24 234 34 28 242 37 25 221 24 16 184 131 120 255 255 255 
255 255 255 255 255 255 255 255 255 255 255 255 255 255 255 255 255 255 255 255 255 254 255 255 255 255 253 250 253 253 250 254 255 255 255 255 255 255 255 255 255 255 255 255 255 242 228 229 99 14 0 255 255 255 230 222 210 136 45 33 196 112 142 244 184 237 238 177 227 239 176 227 247 185 242 171 84 95 234 32 15 237 29 29 240 40 24 248 31 26 229 50 36 102 13 10 0 0 0 0 0 0 0 0 0 114 19 10 244 52 33 248 35 23 236 35 29 237 35 26 235 34 28 239 37 26 222 22 15 178 130 122 255 255 255 
255 255 255 255 255 255 255 255 255 255 255 255 255 255 255 255 255 255 255 255 255 254 255 255 255 255 253 253 254 255 255 255 255 162 106 91 150 32 11 155 35 14 131 54 29 255 255 255 255 255 255 186 163 164 164 24 2 205 34 15 195 125 150 243 183 237 239 177 227 239 176 226 247 185 242 170 84 96 233 32 16 236 33 28 236 35 27 236 36 27 245 31 24 255 35 29 251 43 32 251 49 34 251 43 33 254 34 26 237 24 30 236 36 27 237 36 26 236 36 27 242 33 24 232 38 30 230 27 13 183 128 115 255 255 255 
255 255 255 255 255 255 255 255 255 255 255 255 255 255 255 255 255 255 255 255 255 255 255 255 255 255 253 255 255 255 211 210 200 146 8 0 241 46 39 255 26 22 181 12 8 158 116 107 171 120 104 176 34 22 249 37 29 231 30 18 164 76 79 247 189 245 238 176 226 239 176 226 246 186 242 171 84 95 234 32 15 236 33 28 237 36 26 237 35 26 234 38 28 240 39 24 243 37 23 235 35 29 246 35 22 238 38 25 231 41 29 236 36 27 237 35 26 236 36 27 239 32 26 241 40 27 188 11 2 197 171 162 255 255 255 
255 255 255 255 255 255 255 255 255 255 255 255 255 255 255 255 255 255 255 255 255 255 255 254 253 255 253 250 255 255 230 205 200 127 10 0 160 64 55 178 37 21 228 34 32 219 45 25 152 24 19 251 37 23 238 28 34 217 51 43 126 18 5 248 194 249 242 175 226 237 176 227 248 183 241 169 87 95 233 27 17 238 35 27 236 36 26 237 36 26 236 33 27 233 32 29 235 33 28 238 34 26 232 35 30 235 33 28 242 33 25 237 36 27 236 36 27 237 36 26 231 32 29 251 42 24 140 16 9 255 255 255 255 255 255 
255 255 255 255 255 255 255 255 255 255 255 255 255 255 255 255 255 255 255 255 255 255 255 253 248 255 254 255 255 255 162 99 89 204 57 38 131 48 33 200 190 182 170 103 88 176 38 26 247 42 36 242 37 21 172 72 57 115 15 3 122 16 0 253 199 250 243 171 224 235 176 229 244 181 244 167 92 94 227 22 20 239 38 26 236 35 27 237 36 27 237 36 26 237 36 26 237 36 26 236 36 26 237 36 26 237 36 26 236 36 27 236 36 27 237 36 27 237 36 26 236 31 28 221 36 24 162 115 111 255 255 255 255 255 255 
255 255 255 255 255 255 255 255 255 255 255 255 255 255 255 255 255 255 255 255 255 255 254 254 249 254 255 255 255 255 192 165 155 193 6 0 186 50 44 149 7 0 164 39 29 137 58 41 129 42 15 128 29 14 168 23 17 247 64 46 153 3 0 255 202 249 241 172 227 237 176 228 243 181 246 170 92 92 229 22 21 237 38 26 237 35 26 237 36 27 237 36 27 237 36 27 237 36 27 237 36 27 237 36 27 237 36 27 237 36 27 236 35 27 236 36 27 237 35 26 247 41 27 152 12 0 219 212 206 255 255 255 255 255 255 
255 255 255 255 255 255 255 255 255 255 255 255 255 255 255 255 255 255 255 255 255 255 254 255 252 254 255 252 255 255 240 241 238 181 138 130 130 38 17 154 21 11 235 44 36 235 61 44 162 24 26 255 49 32 248 35 26 214 27 16 122 0 0 246 181 222 238 174 231 239 176 227 251 187 245 155 57 54 248 35 26 237 36 25 236 35 27 237 36 27 237 36 27 237 36 27 237 36 27 237 36 27 237 36 27 237 36 27 236 35 27 238 37 26 241 34 25 241 33 25 198 46 32 149 90 76 255 255 255 249 254 255 255 255 255 
255 255 255 255 255 255 255 255 255 255 255 255 255 255 255 255 255 255 255 255 255 255 255 255 255 255 255 255 255 255 255 255 255 255 255 255 255 255 255 232 221 218 131 36 19 208 18 4 202 12 5 158 4 0 141 53 39 182 154 144 181 143 129 190 104 129 237 180 240 242 176 225 246 197 247 158 40 43 245 38 22 235 33 28 237 36 26 237 36 27 237 36 27 237 36 27 237 36 27 237 36 27 237 36 27 237 36 26 236 36 27 231 34 29 245 29 22 240 43 36 130 6 0 255 255 252 253 255 255 255 253 255 255 255 255 
255 255 255 255 255 255 255 255 255 255 255 255 255 255 255 255 255 255 255 255 255 255 255 255 255 255 255 255 255 255 255 255 255 254 255 253 251 254 252 255 255 255 238 234 228 202 172 164 210 187 184 237 238 231 255 255 255 255 255 255 201 176 175 210 125 148 240 179 238 241 175 226 253 191 245 148 31 34 245 43 24 235 34 27 237 36 26 237 36 27 237 36 27 237 36 27 237 36 27 237 36 27 237 36 27 236 36 26 236 36 27 241 30 26 243 49 39 170 22 6 198 161 158 253 255 255 252 255 255 253 254 255 255 255 255 
255 255 255 254 255 255 255 255 255 255 255 255 255 255 255 255 255 255 255 255 255 255 255 255 255 255 255 255 255 255 255 255 255 255 255 255 255 255 255 255 255 255 255 255 255 255 255 255 255 255 255 255 255 255 252 255 255 255 255 255 203 174 165 167 71 92 245 183 240 240 177 227 236 176 236 220 162 193 183 10 1 240 37 28 237 35 26 237 36 27 237 36 27 237 36 27 237 36 27 237 35 26 236 35 26 237 35 27 237 35 26 244 42 29 163 20 9 179 154 143 255 255 255 246 251 255 255 255 251 253 255 255 255 255 255 
255 255 255 251 253 254 252 255 255 253 255 254 254 253 255 255 255 255 255 255 255 252 254 255 251 255 255 228 218 212 179 139 131 182 147 142 184 149 138 177 143 130 242 241 237 255 255 255 255 255 255 252 253 252 254 255 254 253 255 254 255 255 255 150 57 59 244 187 249 237 176 228 241 177 231 233 174 209 176 9 0 243 36 28 236 36 26 237 36 27 237 36 27 237 36 27 237 35 26 236 36 26 228 39 31 241 38 25 245 37 26 179 19 6 181 154 148 255 255 255 254 253 255 255 255 255 255 255 255 255 255 255 255 255 255 
255 255 255 255 255 254 255 255 255 255 255 255 255 255 255 255 255 255 255 255 255 251 255 255 255 255 255 129 0 0 222 29 12 222 19 8 220 21 9 217 33 23 164 4 0 123 15 0 223 211 203 255 255 255 255 255 255 250 252 251 255 255 255 135 56 35 242 174 211 254 176 239 242 173 240 227 168 215 177 10 0 244 37 28 236 36 27 237 36 27 237 36 27 237 36 27 236 36 26 238 35 26 235 33 28 243 34 25 225 29 28 135 65 48 255 255 255 248 255 255 255 254 254 255 255 255 255 255 255 255 255 255 255 255 255 
255 255 255 229 220 224 127 21 2 131 39 24 255 255 255 255 255 255 255 255 255 255 255 255 187 163 153 208 35 23 241 34 27 236 31 29 241 33 26 237 37 27 247 32 26 245 55 40 151 21 9 194 154 147 255 255 255 255 255 255 194 145 133 148 42 33 133 45 46 190 115 139 213 141 166 231 178 207 178 8 0 244 34 28 236 35 27 237 35 27 237 36 26 237 35 26 237 35 26 241 32 23 239 39 31 183 40 19 134 70 58 242 244 238 254 255 255 255 255 252 254 255 254 255 255 255 255 255 255 255 255 255 255 255 255 
255 255 255 249 255 252 168 0 0 227 54 46 128 40 18 250 255 255 253 255 254 255 255 255 220 209 200 124 13 0 211 36 27 239 32 25 241 39 25 233 37 28 243 40 24 224 34 32 190 29 16 128 15 0 138 54 36 132 49 44 190 116 135 254 201 255 255 190 234 188 100 131 197 119 140 104 10 1 182 36 17 241 37 28 238 39 26 237 36 26 231 33 29 236 37 28 245 39 25 216 52 44 130 27 12 201 174 171 255 255 255 255 255 255 254 254 255 254 254 255 254 255 255 255 255 255 255 255 255 255 255 255 255 255 255 
255 255 255 247 255 251 172 1 0 253 26 23 222 55 43 163 111 94 255 255 255 250 248 253 253 255 255 255 255 255 153 78 64 222 66 56 236 37 24 240 35 25 234 34 29 240 35 30 204 33 18 148 58 66 250 193 241 249 191 244 247 181 235 238 176 227 238 177 228 244 185 237 249 184 240 240 183 222 144 27 21 246 37 25 234 31 28 238 33 25 247 33 20 238 40 27 154 29 12 146 95 81 255 255 255 254 255 255 248 251 254 255 255 255 255 255 255 255 255 255 255 255 255 255 255 255 255 255 255 255 255 255 255 255 255 
255 255 255 246 255 254 160 7 0 244 33 28 232 28 25 221 53 44 220 180 176 255 255 255 255 255 255 255 255 255 206 184 175 110 0 0 240 44 30 238 34 26 242 33 25 242 41 28 179 27 11 208 134 159 235 180 242 239 172 227 241 174 226 239 177 226 238 177 227 237 177 228 235 168 234 248 194 253 168 82 77 227 41 26 253 34 24 243 49 34 184 74 60 114 6 0 168 121 106 255 255 255 254 255 255 255 255 254 255 255 253 255 255 254 255 255 255 255 255 255 255 255 255 255 255 255 255 255 255 255 255 255 255 255 255 
255 255 255 248 255 253 159 5 0 241 37 29 241 39 24 245 32 20 196 17 9 200 95 83 207 193 185 255 255 255 238 232 232 148 84 69 238 41 24 245 31 31 251 36 26 214 40 19 118 37 36 246 184 239 237 174 230 244 177 223 233 175 229 233 169 229 247 177 231 250 188 244 248 186 240 157 64 59 156 97 82 145 53 42 146 11 0 118 4 0 195 160 150 251 255 252 255 255 255 252 253 255 255 253 255 254 254 255 252 255 255 255 255 255 255 255 255 255 255 255 255 255 255 255 255 255 255 255 255 255 255 255 255 255 255 
255 255 255 240 235 233 172 10 0 240 33 29 237 38 26 235 39 27 237 38 27 236 32 21 182 37 25 138 77 63 231 219 224 175 142 128 154 10 0 158 21 11 159 18 13 150 7 0 217 162 171 247 180 240 241 168 227 236 171 229 247 181 234 255 192 245 212 150 184 160 63 59 110 5 0 223 211 206 255 255 255 255 255 255 255 255 255 255 255 255 255 255 255 255 255 255 255 255 255 255 255 255 255 255 255 255 255 255 255 255 255 255 255 255 255 255 255 255 255 255 255 255 255 255 255 255 255 255 255 255 255 255 255 255 255 
255 255 255 168 129 123 222 40 23 240 30 26 237 39 26 235 36 27 238 37 26 240 35 25 244 31 24 245 43 22 212 27 4 206 18 14 223 31 23 230 45 35 238 54 30 236 48 35 138 30 24 246 190 223 249 190 246 250 192 249 200 126 145 141 49 33 157 87 68 251 255 255 255 255 255 255 255 255 254 255 252 251 255 254 251 255 255 252 255 254 254 255 254 255 255 255 255 255 255 255 255 255 255 255 255 255 255 255 255 255 255 255 255 255 255 255 255 255 255 255 255 255 255 255 255 255 255 255 255 255 255 255 255 255 255 
255 255 255 177 132 122 225 24 9 240 30 26 235 41 26 239 37 25 233 35 28 233 34 28 238 35 26 234 33 29 242 34 25 242 37 27 231 36 32 239 32 27 240 38 22 240 27 27 235 51 29 138 43 41 150 62 68 167 73 73 125 53 37 255 255 255 255 255 255 254 255 254 254 255 252 253 255 254 251 255 255 253 254 253 255 253 253 253 253 253 254 254 254 255 255 255 255 255 255 255 255 255 255 255 255 255 255 255 255 255 255 255 255 255 255 255 255 255 255 255 255 255 255 255 255 255 255 255 255 255 255 255 255 255 255 
255 255 255 179 149 140 203 54 42 243 27 22 235 35 26 229 34 31 236 35 27 240 36 25 236 36 27 237 36 26 236 35 26 235 38 27 236 35 26 237 32 27 232 33 29 239 26 28 241 39 29 165 32 11 185 133 115 244 250 252 255 255 255 255 255 255 255 255 255 255 255 255 255 255 255 255 255 255 255 255 255 255 255 255 255 255 255 255 255 255 255 255 255 255 255 255 255 255 255 255 255 255 255 255 255 255 255 255 255 255 255 255 255 255 255 255 255 255 255 255 255 255 255 255 255 255 255 255 255 255 255 255 255 255 255 
255 255 255 255 255 255 154 94 85 171 48 39 245 44 30 248 32 20 244 34 22 232 35 30 237 36 26 236 36 26 236 36 26 232 33 30 242 35 25 236 34 25 246 38 24 241 32 22 158 9 0 200 179 176 255 255 255 252 255 255 251 255 252 255 255 255 255 255 255 255 255 255 255 255 255 255 255 255 255 255 255 255 255 255 255 255 255 255 255 255 255 255 255 255 255 255 255 255 255 255 255 255 255 255 255 255 255 255 255 255 255 255 255 255 255 255 255 255 255 255 255 255 255 255 255 255 255 255 255 255 255 255 255 255 255 
255 255 255 248 254 255 255 255 255 211 193 184 134 41 28 185 48 35 238 51 39 244 32 26 246 36 28 246 36 28 246 36 28 242 28 31 244 31 24 229 47 42 143 38 24 164 84 74 166 123 113 255 255 255 252 254 253 254 252 254 252 251 252 255 255 255 255 255 255 255 255 255 255 255 255 255 255 255 255 255 255 255 255 255 255 255 255 255 255 255 255 255 255 255 255 255 255 255 255 255 255 255 255 255 255 255 255 255 255 255 255 255 255 255 255 255 255 255 255 255 255 255 255 255 255 255 255 255 255 255 255 255 255 255 255 
255 255 255 255 255 255 255 255 255 255 255 255 255 255 255 214 201 199 129 46 38 157 1 0 154 6 0 154 6 0 155 6 0 151 0 0 141 20 5 156 101 89 254 255 247 255 255 255 255 255 255 255 255 254 255 255 255 255 255 255 255 255 255 255 255 255 255 255 255 255 255 255 255 255 255 255 255 255 255 255 255 255 255 255 255 255 255 255 255 255 255 255 255 255 255 255 255 255 255 255 255 255 255 255 255 255 255 255 255 255 255 255 255 255 255 255 255 255 255 255 255 255 255 255 255 255 255 255 255 255 255 255 255 255 255 
255 255 255 255 255 255 254 254 254 254 254 254 253 254 252 255 255 255 255 255 255 255 255 255 255 255 255 255 255 255 255 255 255 255 255 255 255 255 255 255 255 255 253 255 255 249 254 255 253 255 254 255 255 254 255 255 255 255 255 255 255 255 255 255 255 255 255 255 255 255 255 255 255 255 255 255 255 255 255 255 255 255 255 255 255 255 255 255 255 255 255 255 255 255 255 255 255 255 255 255 255 255 255 255 255 255 255 255 255 255 255 255 255 255 255 255 255 255 255 255 255 255 255 255 255 255 255 255 255 255 255 255 255 255 255 
