P3
45 74
255
255 255 255 255 255 255 255 255 255 255 255 255 255 255 255 255 255 255 255 255 255 255 255 255 255 255 255 255 255 255 255 255 255 255 255 255 255 255 255 255 255 255 255 255 255 255 255 255 255 255 255 255 255 255 255 255 255 255 255 255 255 255 255 255 255 255 255 255 255 255 255 255 255 255 255 255 255 255 255 255 255 255 255 254 253 255 254 249 254 255 253 255 255 255 255 255 255 255 255 255 255 255 255 255 255 255 255 255 255 255 255 255 255 255 255 255 255 255 255 255 253 254 252 254 254 254 254 254 254 255 255 255 255 255 255 
255 255 255 255 255 255 255 255 255 255 255 255 255 255 255 255 255 255 255 255 255 255 255 255 255 255 255 255 255 255 255 255 255 255 255 255 255 255 255 255 255 255 255 255 255 255 255 255 255 255 255 255 255 255 255 255 255 255 255 255 255 255 255 255 255 255 255 255 255 255 255 255 255 255 255 255 255 255 255 255 255 255 255 254 255 255 255 255 255 255 254 255 247 156 101 89 141 20 5 151 0 0 155 6 0 154 6 0 154 6 0 157 1 0 129 46 38 214 201 199 255 255 255 255 255 255 255 255 255 255 255 255 255 255 255 
255 255 255 255 255 255 255 255 255 255 255 255 255 255 255 255 255 255 255 255 255 255 255 255 255 255 255 255 255 255 255 255 255 255 255 255 255 255 255 255 255 255 255 255 255 255 255 255 255 255 255 255 255 255 255 255 255 255 255 255 255 255 255 255 255 255 255 255 255 255 255 255 252 251 252 254 252 254 252 254 253 255 255 255 166 123 113 164 84 74 143 38 24 229 47 42 244 31 24 242 28 31 246 36 28 246 36 28 246 36 28 244 32 26 238 51 39 185 48 35 134 41 28 211 193 184 255 255 255 248 254 255 255 255 255 
255 255 255 255 255 255 255 255 255 255 255 255 255 255 255 255 255 255 255 255 255 255 255 255 255 255 255 255 255 255 255 255 255 255 255 255 255 255 255 255 255 255 255 255 255 255 255 255 255 255 255 255 255 255 255 255 255 255 255 255 255 255 255 255 255 255 255 255 255 255 255 255 251 255 252 252 255 255 255 255 255 200 179 176 158 9 0 241 32 22 246 38 24 236 34 25 242 35 25 232 33 30 236 36 26 236 36 26 237 36 26 232 35 30 244 34 22 248 32 20 245 44 30 171 48 39 154 94 85 255 255 255 255 255 255 
255 255 255 255 255 255 255 255 255 255 255 255 255 255 255 255 255 255 255 255 255 255 255 255 255 255 255 255 255 255 255 255 255 255 255 255 255 255 255 255 255 255 255 255 255 255 255 255 255 255 255 255 255 255 255 255 255 255 255 255 255 255 255 255 255 255 255 255 255 255 255 255 255 255 255 244 250 252 185 133 115 165 32 11 241 39 29 239 26 28 232 33 29 237 32 27 236 35 26 235 38 27 236 35 26 237 36 26 236 36 27 240 36 25 236 35 27 229 34 31 235 35 26 243 27 22 203 54 42 179 149 140 255 255 255 
255 255 255 255 255 255 255 255 255 255 255 255 255 255 255 255 255 255 255 255 255 255 255 255 255 255 255 255 255 255 255 255 255 255 255 255 255 255 255 255 255 255 254 254 254 253 253 253 255 253 253 253 254 253 251 255 255 253 255 254 254 255 252 254 255 254 255 255 255 255 255 255 125 53 37 167 73 73 150 62 68 138 43 41 235 51 29 240 27 27 240 38 22 239 32 27 231 36 32 242 37 27 242 34 25 234 33 29 238 35 26 233 34 28 233 35 28 239 37 25 235 41 26 240 30 26 225 24 9 177 132 122 255 255 255 
255 255 255 255 255 255 255 255 255 255 255 255 255 255 255 255 255 255 255 255 255 255 255 255 255 255 255 255 255 255 255 255 255 255 255 255 255 255 255 255 255 255 254 255 254 252 255 254 251 255 255 251 255 254 254 255 252 255 255 255 255 255 255 251 255 255 157 87 68 141 49 33 200 126 145 250 192 249 249 190 246 246 190 223 138 30 24 236 48 35 238 54 30 230 45 35 223 31 23 206 18 14 212 27 4 245 43 22 244 31 24 240 35 25 238 37 26 235 36 27 237 39 26 240 30 26 222 40 23 168 129 123 255 255 255 
255 255 255 255 255 255 255 255 255 255 255 255 255 255 255 255 255 255 255 255 255 255 255 255 255 255 255 255 255 255 255 255 255 255 255 255 255 255 255 255 255 255 255 255 255 255 255 255 255 255 255 255 255 255 255 255 255 223 211 206 110 5 0 160 63 59 212 150 184 255 192 245 247 181 234 236 171 229 241 168 227 247 180 240 217 162 171 150 7 0 159 18 13 158 21 11 154 10 0 175 142 128 231 219 224 138 77 63 182 37 25 236 32 21 237 38 27 235 39 27 237 38 26 240 33 29 172 10 0 240 235 233 255 255 255 
255 255 255 255 255 255 255 255 255 255 255 255 255 255 255 255 255 255 255 255 255 255 255 255 252 255 255 254 254 255 255 253 255 252 253 255 255 255 255 251 255 252 195 160 150 118 4 0 146 11 0 145 53 42 156 97 82 157 64 59 248 186 240 250 188 244 247 177 231 233 169 229 233 175 229 244 177 223 237 174 230 246 184 239 118 37 36 214 40 19 251 36 26 245 31 31 238 41 24 148 84 69 238 232 232 255 255 255 207 193 185 200 95 83 196 17 9 245 32 20 241 39 24 241 37 29 159 5 0 248 255 253 255 255 255 
255 255 255 255 255 255 255 255 255 255 255 255 255 255 255 255 255 255 255 255 255 255 255 254 255 255 253 255 255 254 254 255 255 255 255 255 168 121 106 114 6 0 184 74 60 243 49 34 253 34 24 227 41 26 168 82 77 248 194 253 235 168 234 237 177 228 238 177 227 239 177 226 241 174 226 239 172 227 235 180 242 208 134 159 179 27 11 242 41 28 242 33 25 238 34 26 240 44 30 110 0 0 206 184 175 255 255 255 255 255 255 255 255 255 220 180 176 221 53 44 232 28 25 244 33 28 160 7 0 246 255 254 255 255 255 
255 255 255 255 255 255 255 255 255 255 255 255 255 255 255 255 255 255 255 255 255 255 255 255 248 251 254 254 255 255 255 255 255 146 95 81 154 29 12 238 40 27 247 33 20 238 33 25 234 31 28 246 37 25 144 27 21 240 183 222 249 184 240 244 185 237 238 177 228 238 176 227 247 181 235 249 191 244 250 193 241 148 58 66 204 33 18 240 35 30 234 34 29 240 35 25 236 37 24 222 66 56 153 78 64 255 255 255 253 255 255 250 248 253 255 255 255 163 111 94 222 55 43 253 26 23 172 1 0 247 255 251 255 255 255 
255 255 255 255 255 255 255 255 255 255 255 255 254 255 255 254 254 255 254 254 255 255 255 255 255 255 255 201 174 171 130 27 12 216 52 44 245 39 25 236 37 28 231 33 29 237 36 26 238 39 26 241 37 28 182 36 17 104 10 1 197 119 140 188 100 131 255 190 234 254 201 255 190 116 135 132 49 44 138 54 36 128 15 0 190 29 16 224 34 32 243 40 24 233 37 28 241 39 25 239 32 25 211 36 27 124 13 0 220 209 200 255 255 255 253 255 254 250 255 255 128 40 18 227 54 46 168 0 0 249 255 252 255 255 255 
255 255 255 255 255 255 255 255 255 255 255 255 254 255 254 255 255 252 254 255 255 242 244 238 134 70 58 183 40 19 239 39 31 241 32 23 237 35 26 237 35 26 237 36 26 237 35 27 236 35 27 244 34 28 178 8 0 231 178 207 213 141 166 190 115 139 133 45 46 148 42 33 194 145 133 255 255 255 255 255 255 194 154 147 151 21 9 245 55 40 247 32 26 237 37 27 241 33 26 236 31 29 241 34 27 208 35 23 187 163 153 255 255 255 255 255 255 255 255 255 255 255 255 131 39 24 127 21 2 229 220 224 255 255 255 
255 255 255 255 255 255 255 255 255 255 255 255 255 254 254 248 255 255 255 255 255 135 65 48 225 29 28 243 34 25 235 33 28 238 35 26 236 36 26 237 36 27 237 36 27 237 36 27 236 36 27 244 37 28 177 10 0 227 168 215 242 173 240 254 176 239 242 174 211 135 56 35 255 255 255 250 252 251 255 255 255 255 255 255 223 211 203 123 15 0 164 4 0 217 33 23 220 21 9 222 19 8 222 29 12 129 0 0 255 255 255 251 255 255 255 255 255 255 255 255 255 255 255 255 255 255 255 255 255 255 255 254 255 255 255 
255 255 255 255 255 255 255 255 255 255 255 255 254 253 255 255 255 255 181 154 148 179 19 6 245 37 26 241 38 25 228 39 31 236 36 26 237 35 26 237 36 27 237 36 27 237 36 27 236 36 26 243 36 28 176 9 0 233 174 209 241 177 231 237 176 228 244 187 249 150 57 59 255 255 255 253 255 254 254 255 254 252 253 252 255 255 255 255 255 255 242 241 237 177 143 130 184 149 138 182 147 142 179 139 131 228 218 212 251 255 255 252 254 255 255 255 255 255 255 255 254 253 255 253 255 254 252 255 255 251 253 254 255 255 255 
255 255 255 253 255 255 255 255 251 246 251 255 255 255 255 179 154 143 163 20 9 244 42 29 237 35 26 237 35 27 236 35 26 237 35 26 237 36 27 237 36 27 237 36 27 237 36 27 237 35 26 240 37 28 183 10 1 220 162 193 236 176 236 240 177 227 245 183 240 167 71 92 203 174 165 255 255 255 252 255 255 255 255 255 255 255 255 255 255 255 255 255 255 255 255 255 255 255 255 255 255 255 255 255 255 255 255 255 255 255 255 255 255 255 255 255 255 255 255 255 255 255 255 255 255 255 255 255 255 254 255 255 255 255 255 
255 255 255 253 254 255 252 255 255 253 255 255 198 161 158 170 22 6 243 49 39 241 30 26 236 36 27 236 36 26 237 36 27 237 36 27 237 36 27 237 36 27 237 36 27 237 36 27 237 36 26 235 34 27 245 43 24 148 31 34 253 191 245 241 175 226 240 179 238 210 125 148 201 176 175 255 255 255 255 255 255 237 238 231 210 187 184 202 172 164 238 234 228 255 255 255 251 254 252 254 255 253 255 255 255 255 255 255 255 255 255 255 255 255 255 255 255 255 255 255 255 255 255 255 255 255 255 255 255 255 255 255 255 255 255 
255 255 255 255 253 255 253 255 255 255 255 252 130 6 0 240 43 36 245 29 22 231 34 29 236 36 27 237 36 26 237 36 27 237 36 27 237 36 27 237 36 27 237 36 27 237 36 27 237 36 26 235 33 28 245 38 22 158 40 43 246 197 247 242 176 225 237 180 240 190 104 129 181 143 129 182 154 144 141 53 39 158 4 0 202 12 5 208 18 4 131 36 19 232 221 218 255 255 255 255 255 255 255 255 255 255 255 255 255 255 255 255 255 255 255 255 255 255 255 255 255 255 255 255 255 255 255 255 255 255 255 255 255 255 255 
255 255 255 249 254 255 255 255 255 149 90 76 198 46 32 241 33 25 241 34 25 238 37 26 236 35 27 237 36 27 237 36 27 237 36 27 237 36 27 237 36 27 237 36 27 237 36 27 236 35 27 237 36 25 248 35 26 155 57 54 251 187 245 239 176 227 238 174 231 246 181 222 122 0 0 214 27 16 248 35 26 255 49 32 162 24 26 235 61 44 235 44 36 154 21 11 130 38 17 181 138 130 240 241 238 252 255 255 252 254 255 255 254 255 255 255 255 255 255 255 255 255 255 255 255 255 255 255 255 255 255 255 255 255 255 
255 255 255 255 255 255 219 212 206 152 12 0 247 41 27 237 35 26 236 36 27 236 35 27 237 36 27 237 36 27 237 36 27 237 36 27 237 36 27 237 36 27 237 36 27 237 36 27 237 35 26 237 38 26 229 22 21 170 92 92 243 181 246 237 176 228 241 172 227 255 202 249 153 3 0 247 64 46 168 23 17 128 29 14 129 42 15 137 58 41 164 39 29 149 7 0 186 50 44 193 6 0 192 165 155 255 255 255 249 254 255 255 254 254 255 255 255 255 255 255 255 255 255 255 255 255 255 255 255 255 255 255 255 255 255 
255 255 255 255 255 255 162 115 111 221 36 24 236 31 28 237 36 26 237 36 27 236 36 27 236 36 27 237 36 26 237 36 26 236 36 26 237 36 26 237 36 26 237 36 26 237 36 27 236 35 27 239 38 26 227 22 20 167 92 94 244 181 244 235 176 229 243 171 224 253 199 250 122 16 0 115 15 3 172 72 57 242 37 21 247 42 36 176 38 26 170 103 88 200 190 182 131 48 33 204 57 38 162 99 89 255 255 255 248 255 254 255 255 253 255 255 255 255 255 255 255 255 255 255 255 255 255 255 255 255 255 255 255 255 255 
255 255 255 255 255 255 140 16 9 251 42 24 231 32 29 237 36 26 236 36 27 237 36 27 242 33 25 235 33 28 232 35 30 238 34 26 235 33 28 233 32 29 236 33 27 237 36 26 236 36 26 238 35 27 233 27 17 169 87 95 248 183 241 237 176 227 242 175 226 248 194 249 126 18 5 217 51 43 238 28 34 251 37 23 152 24 19 219 45 25 228 34 32 178 37 21 160 64 55 127 10 0 230 205 200 250 255 255 253 255 253 255 255 254 255 255 255 255 255 255 255 255 255 255 255 255 255 255 255 255 255 255 255 255 255 
255 255 255 197 171 162 188 11 2 241 40 27 239 32 26 236 36 27 237 35 26 236 36 27 231 41 29 238 38 25 246 35 22 235 35 29 243 37 23 240 39 24 234 38 28 237 35 26 237 36 26 236 33 28 234 32 15 171 84 95 246 186 242 239 176 226 238 176 226 247 189 245 164 76 79 231 30 18 249 37 29 176 34 22 171 120 104 158 116 107 181 12 8 255 26 22 241 46 39 146 8 0 211 210 200 255 255 255 255 255 253 255 255 255 255 255 255 255 255 255 255 255 255 255 255 255 255 255 255 255 255 255 255 255 255 
255 255 255 183 128 115 230 27 13 232 38 30 242 33 24 236 36 27 237 36 26 236 36 27 237 24 30 254 34 26 251 43 33 251 49 34 251 43 32 255 35 29 245 31 24 236 36 27 236 35 27 236 33 28 233 32 16 170 84 96 247 185 242 239 176 226 239 177 227 243 183 237 195 125 150 205 34 15 164 24 2 186 163 164 255 255 255 255 255 255 131 54 29 155 35 14 150 32 11 162 106 91 255 255 255 253 254 255 255 255 253 254 255 255 255 255 255 255 255 255 255 255 255 255 255 255 255 255 255 255 255 255 255 255 255 
255 255 255 178 130 122 222 22 15 239 37 26 235 34 28 237 35 26 236 35 29 248 35 23 244 52 33 114 19 10 0 0 0 0 0 0 0 0 0 102 13 10 229 50 36 248 31 26 240 40 24 237 29 29 234 32 15 171 84 95 247 185 242 239 176 227 238 177 227 244 184 237 196 112 142 136 45 33 230 222 210 255 255 255 99 14 0 242 228 229 255 255 255 255 255 255 255 255 255 255 255 255 250 254 255 250 253 253 255 255 253 254 255 255 255 255 255 255 255 255 255 255 255 255 255 255 255 255 255 255 255 255 255 255 255 
255 255 255 184 131 120 221 24 16 242 37 25 234 34 28 243 35 24 243 33 26 229 45 35 6 0 0 58 80 81 226 228 223 255 255 255 225 233 234 86 95 94 0 0 0 221 37 37 229 40 32 237 29 28 233 32 16 170 84 96 247 185 242 239 176 226 238 177 227 241 180 233 217 147 180 184 157 133 214 192 182 140 65 57 210 54 36 141 29 18 187 164 159 255 255 255 252 255 255 252 255 254 255 255 255 255 255 255 255 255 255 255 255 255 255 255 255 255 255 255 255 255 255 255 255 255 255 255 255 255 255 255 255 255 255 
255 255 255 184 131 120 221 24 16 241 37 25 238 34 26 241 32 25 252 45 29 49 0 0 98 115 113 255 255 255 255 255 255 255 255 255 255 255 255 255 255 255 145 163 157 10 0 0 255 42 28 237 38 26 234 31 15 171 84 95 247 185 242 239 176 227 238 177 227 240 179 230 236 167 211 138 21 9 207 13 4 232 46 28 171 7 0 182 24 11 193 28 11 147 36 14 191 159 154 255 255 255 255 255 255 255 255 255 255 255 255 255 255 255 255 255 255 255 255 255 255 255 255 255 255 255 255 255 255 255 255 255 255 255 255 
255 255 255 184 131 120 221 24 16 241 37 26 241 34 25 235 32 30 227 43 30 0 0 0 255 255 255 255 253 255 224 220 225 85 84 84 255 255 255 255 255 255 255 255 255 0 19 14 184 32 28 247 29 28 233 32 16 170 84 96 247 185 242 239 176 226 238 177 226 239 177 226 247 193 249 162 66 64 153 32 17 156 82 67 217 217 220 208 179 168 147 19 8 164 35 20 133 62 45 255 255 255 255 255 255 255 255 255 255 255 255 255 255 255 255 255 255 255 255 255 255 255 255 255 255 255 255 255 255 255 255 255 255 255 255 
255 255 255 184 131 120 221 24 16 241 37 25 241 34 25 241 37 28 187 31 17 27 45 47 255 255 255 255 255 255 127 127 127 0 0 0 233 233 234 255 255 255 255 255 255 57 70 69 164 26 15 246 29 29 234 32 15 171 84 95 247 185 242 239 175 226 239 173 228 238 175 226 244 182 237 188 109 136 201 162 145 255 255 255 255 255 255 255 255 255 235 228 218 222 208 203 255 255 255 255 255 255 255 255 255 255 255 255 255 255 255 255 255 255 255 255 255 255 255 255 255 255 255 255 255 255 255 255 255 255 255 255 255 255 255 
255 255 255 184 131 120 221 24 16 241 37 26 241 33 25 235 33 30 223 50 34 0 0 0 255 255 255 254 254 254 253 253 253 179 179 179 255 255 255 254 253 254 255 255 255 0 8 15 218 38 20 237 35 29 234 32 16 170 84 96 247 185 242 238 168 228 245 183 234 238 170 228 243 172 229 249 189 228 124 62 49 255 255 255 253 255 255 249 254 255 252 255 255 251 255 255 255 254 252 250 255 255 254 255 255 255 255 255 255 255 255 255 255 255 255 255 255 255 255 255 255 255 255 255 255 255 255 255 255 255 255 255 255 255 255 
255 255 255 184 131 120 221 24 16 241 37 25 239 34 26 226 31 33 255 42 24 51 2 0 89 102 103 255 255 255 255 255 255 255 255 255 255 255 255 255 255 255 113 127 129 41 0 0 248 34 35 239 32 27 236 32 16 169 81 91 247 185 242 245 180 233 170 127 154 245 185 233 243 174 234 218 143 180 180 130 123 255 255 255 255 255 254 255 255 253 255 255 252 253 255 251 251 255 254 253 253 254 255 255 254 255 255 255 255 255 255 255 255 255 255 255 255 255 255 255 255 255 255 255 255 255 255 255 255 255 255 255 255 255 255 
255 255 255 181 131 120 220 24 16 241 37 25 235 33 28 239 36 26 236 34 26 237 40 36 2 0 0 48 68 68 208 211 215 247 247 255 216 222 221 64 81 80 0 0 0 222 44 32 242 31 27 243 38 25 192 30 11 183 112 138 248 182 237 249 193 240 55 38 49 255 190 242 242 173 228 247 179 230 155 74 59 255 255 255 255 255 255 255 255 255 255 255 255 254 255 255 254 255 255 255 255 255 255 255 255 255 255 255 255 255 255 255 255 255 255 255 255 255 255 255 255 255 255 255 255 255 255 255 255 255 255 255 255 255 255 
255 255 255 186 132 120 228 24 13 244 37 23 234 33 29 239 36 26 235 36 28 238 36 29 250 38 36 119 22 14 23 0 0 0 0 0 0 0 0 117 17 11 245 47 30 255 30 19 235 31 29 243 39 27 168 11 0 234 179 213 238 176 234 249 193 240 64 45 59 255 190 242 235 173 231 255 191 231 141 74 59 255 255 255 255 255 255 255 255 255 255 255 255 255 255 255 255 255 255 255 255 255 255 255 255 255 255 255 255 255 255 255 255 255 255 255 255 255 255 255 255 255 255 255 255 255 255 255 255 255 255 255 255 255 255 
255 255 255 177 128 119 217 28 23 241 37 25 235 33 28 238 36 26 238 35 26 240 36 25 241 38 25 250 36 26 255 37 28 252 42 33 255 44 27 249 33 29 236 29 30 230 35 30 236 35 27 244 36 28 172 13 0 227 173 209 242 176 231 249 193 241 64 45 59 255 190 242 244 179 238 187 110 130 215 178 172 255 255 255 255 255 255 255 255 255 255 255 255 255 255 255 255 255 255 255 255 255 255 255 255 255 255 255 255 255 255 255 255 255 255 255 255 255 255 255 255 255 255 255 255 255 255 255 255 255 255 255 255 255 255 
255 255 255 196 174 168 207 21 11 238 38 28 236 34 27 236 36 26 237 36 27 238 35 26 234 33 29 233 33 29 237 35 27 232 33 30 235 35 27 238 37 26 238 37 25 237 38 26 238 37 25 242 35 29 172 10 0 228 170 209 243 174 231 249 194 240 64 45 59 255 190 242 246 178 236 192 104 128 217 199 189 255 255 255 255 255 255 255 255 255 255 255 255 255 255 255 255 255 255 255 255 255 255 255 255 255 255 255 255 255 255 255 255 255 255 255 255 255 255 255 255 255 255 255 255 255 255 255 255 255 255 255 255 255 255 
255 255 255 205 195 188 202 12 0 236 38 30 236 35 27 237 36 26 236 36 27 236 36 27 237 36 26 237 36 26 237 36 26 237 36 26 237 36 26 236 35 27 236 35 27 236 35 27 236 35 27 245 36 27 171 8 0 227 170 209 242 173 232 249 193 240 64 45 59 255 190 242 244 179 237 191 102 130 215 200 188 255 255 255 255 255 255 255 255 255 255 255 255 255 255 255 255 255 255 255 255 255 255 255 255 255 255 255 255 255 255 255 255 255 255 255 255 255 255 255 255 255 255 255 255 255 255 255 255 255 255 255 255 255 255 
255 255 255 205 194 187 204 13 0 236 38 30 236 35 27 237 36 26 237 36 27 237 36 27 237 36 27 237 36 27 236 36 27 236 36 27 236 36 27 237 36 27 237 36 27 237 36 27 236 36 27 245 36 28 171 8 0 227 169 209 242 173 232 249 194 240 64 45 60 255 191 242 245 178 237 191 102 130 215 200 188 255 255 255 255 255 255 255 255 255 255 255 255 255 255 255 255 255 255 255 255 255 255 255 255 255 255 255 255 255 255 255 255 255 255 255 255 255 255 255 255 255 255 255 255 255 255 255 255 255 255 255 255 255 255 
255 255 255 205 193 187 196 12 1 240 37 27 235 35 28 237 36 26 237 36 27 236 36 27 236 36 27 236 34 26 239 34 26 240 34 26 237 34 26 236 35 27 236 36 27 237 36 27 236 36 27 247 35 26 166 10 0 231 176 211 241 172 233 252 190 241 56 42 49 255 186 244 242 181 240 194 111 129 213 193 184 255 255 255 255 255 255 255 255 255 255 255 255 255 255 255 255 255 255 255 255 255 255 255 255 255 255 255 255 255 255 255 255 255 255 255 255 255 255 255 255 255 255 255 255 255 255 255 255 255 255 255 255 255 255 
255 255 255 211 193 186 192 8 2 244 37 26 236 35 27 237 36 26 236 36 27 237 36 27 240 36 25 235 35 27 228 35 31 228 36 31 232 35 29 239 36 26 238 36 26 236 36 27 236 36 27 247 34 25 183 23 9 219 161 186 239 175 236 255 188 244 61 51 52 255 182 246 247 186 242 149 61 66 240 230 228 254 255 255 255 255 255 255 255 255 255 255 255 255 255 255 255 255 255 255 255 255 255 255 255 255 255 255 255 255 255 255 255 255 255 255 255 255 255 255 255 255 255 255 255 255 255 255 255 255 255 255 255 255 255 
255 255 255 175 139 127 207 14 5 241 37 27 236 35 27 237 36 26 237 36 26 236 36 27 231 33 30 252 38 20 255 46 22 255 48 24 255 41 20 240 34 25 231 34 29 237 36 26 236 36 26 238 31 26 229 47 25 161 78 94 244 187 242 255 189 244 62 53 53 255 182 247 250 190 241 144 52 46 255 255 255 253 255 254 255 255 255 255 255 255 255 255 255 255 255 255 255 255 255 255 255 255 255 255 255 255 255 255 255 255 255 255 255 255 255 255 255 255 255 255 255 255 255 255 255 255 255 255 255 255 255 255 255 255 255 
255 255 255 178 137 122 206 19 7 241 35 27 236 36 27 237 35 27 235 34 28 241 33 25 255 41 25 205 44 33 115 12 10 104 8 9 155 27 22 249 49 33 253 33 21 234 32 28 238 35 26 235 31 28 236 36 15 174 84 94 244 190 242 255 187 244 58 52 53 255 184 246 244 188 244 154 58 54 253 255 255 255 255 253 255 255 255 255 255 255 255 255 255 255 255 255 255 255 255 255 255 255 255 255 255 255 255 255 255 255 255 255 255 255 255 255 255 255 255 255 255 255 255 255 255 255 255 255 255 255 255 255 255 255 255 
255 255 255 183 137 123 161 8 0 250 36 26 235 35 28 238 32 27 244 30 24 243 46 36 82 8 5 0 0 0 87 100 103 115 126 132 23 38 39 0 0 0 187 40 37 254 34 23 238 32 27 233 35 30 234 31 15 170 84 95 247 184 242 255 190 244 52 48 53 253 197 244 249 182 242 154 59 71 255 255 253 255 255 255 255 255 255 255 255 255 255 255 255 255 255 255 255 255 255 255 255 255 255 255 255 255 255 255 255 255 255 255 255 255 255 255 255 255 255 255 255 255 255 255 255 255 255 255 255 255 255 255 255 255 255 
255 255 255 179 132 121 160 18 5 245 44 28 233 33 28 239 33 27 255 45 27 86 11 4 35 54 59 255 255 255 255 255 255 255 255 255 255 255 255 190 197 193 0 0 0 229 52 27 239 33 29 234 33 29 234 32 16 170 84 96 247 185 242 253 189 240 85 60 76 253 195 242 248 183 243 154 59 70 255 255 253 255 255 255 255 255 255 255 255 255 255 255 255 255 255 255 255 255 255 255 255 255 255 255 255 255 255 255 255 255 255 255 255 255 255 255 255 255 255 255 255 255 255 255 255 255 255 255 255 255 255 255 255 255 255 
255 255 255 201 160 153 127 5 0 230 45 28 233 34 30 245 34 24 215 44 32 0 0 0 255 255 255 253 253 253 255 255 255 255 255 255 255 255 255 255 255 255 121 137 132 56 2 2 255 37 25 240 31 27 233 32 15 171 84 95 247 185 242 238 168 229 255 193 240 239 170 228 248 183 243 154 59 71 255 255 254 255 255 255 255 255 255 255 255 255 255 255 255 255 255 255 255 255 255 255 255 255 255 255 255 255 255 255 255 255 255 255 255 255 255 255 255 255 255 255 255 255 255 255 255 255 255 255 255 255 255 255 255 255 255 
255 255 255 193 159 150 131 46 32 202 40 26 241 33 29 246 34 29 135 22 12 69 84 94 255 255 255 255 255 255 172 172 172 0 0 0 210 209 210 255 255 255 234 234 237 0 0 0 253 46 32 235 32 29 233 32 16 170 84 96 247 186 242 239 177 226 238 176 227 238 177 226 248 184 241 151 65 73 255 253 253 255 255 254 255 255 255 255 255 255 255 255 255 255 255 255 255 255 255 255 255 255 255 255 255 255 255 255 255 255 255 255 255 255 255 255 255 255 255 255 255 255 255 255 255 255 255 255 255 255 255 255 255 255 255 
255 255 255 255 255 255 129 23 0 151 21 15 246 40 28 254 39 24 121 18 13 75 93 94 255 255 255 255 255 255 99 99 99 17 17 17 255 255 255 255 255 255 233 241 241 0 0 0 238 46 39 244 38 23 233 31 15 171 84 95 247 185 242 239 176 227 238 177 227 238 176 227 253 194 248 119 38 27 255 255 255 251 255 255 255 255 255 255 255 255 255 255 255 255 255 255 255 255 255 255 255 255 255 255 255 255 255 255 255 255 255 255 255 255 255 255 255 255 255 255 255 255 255 255 255 255 255 255 255 255 255 255 255 255 255 
255 255 255 255 255 255 190 150 139 125 0 0 247 45 27 237 26 31 220 43 29 0 0 0 255 255 255 254 254 254 255 255 255 255 255 255 253 253 253 255 255 255 111 123 125 71 8 3 255 29 29 237 35 28 233 32 16 170 84 96 247 185 242 238 177 227 238 177 227 240 180 232 225 151 191 175 116 98 255 255 255 255 252 253 255 255 255 255 255 255 255 255 255 255 255 255 255 255 255 255 255 255 255 255 255 255 255 255 255 255 255 255 255 255 255 255 255 255 255 255 255 255 255 255 255 255 255 255 255 255 255 255 255 255 255 
255 255 255 255 255 255 210 200 191 119 0 0 238 44 33 236 29 28 255 45 28 65 6 4 61 73 71 255 255 255 255 255 255 255 255 255 255 255 255 208 215 213 0 0 0 205 49 33 247 30 25 237 32 28 234 32 15 171 84 95 247 185 242 241 173 226 238 176 226 252 187 240 149 54 64 241 244 237 255 255 255 248 252 255 255 255 255 221 207 202 238 235 231 255 255 255 253 255 250 253 252 254 254 254 255 255 255 255 255 255 255 255 255 255 255 255 255 255 255 255 255 255 255 255 255 255 255 255 255 255 255 255 255 255 255 
255 255 255 252 255 255 255 255 255 123 17 0 228 40 24 236 33 29 250 30 22 250 48 33 60 5 0 0 0 2 102 114 114 139 148 141 33 50 56 0 0 0 180 45 32 255 36 22 236 30 28 239 35 27 233 32 16 170 84 96 246 186 242 242 174 225 234 174 231 255 205 250 142 31 16 141 23 15 164 103 92 246 255 249 172 117 111 169 28 7 140 25 12 163 118 113 255 255 255 253 254 254 255 255 255 255 255 255 255 255 255 255 255 255 255 255 255 255 255 255 255 255 255 255 255 255 255 255 255 255 255 255 255 255 255 
255 255 255 255 252 255 255 255 255 123 35 15 206 40 29 245 33 25 227 32 32 235 31 29 255 35 31 201 38 30 113 17 8 88 9 0 157 30 21 247 43 37 248 29 27 227 32 32 235 33 28 240 32 26 234 32 15 171 84 95 246 186 242 239 176 227 242 178 238 204 134 156 153 28 12 214 26 7 214 41 32 160 0 0 187 33 22 178 23 2 143 50 36 217 193 179 255 255 255 252 253 254 255 254 255 255 255 255 255 255 255 255 255 255 255 255 255 255 255 255 255 255 255 255 255 255 255 255 255 255 255 255 255 255 255 
255 255 255 254 254 253 255 255 255 176 111 96 170 15 4 242 33 29 239 37 25 243 35 24 237 38 26 242 34 26 252 32 27 255 32 27 247 33 27 238 36 26 240 37 25 237 36 26 238 36 26 235 31 29 231 30 17 173 82 95 238 183 246 240 174 226 242 178 239 190 104 114 213 192 188 198 176 166 147 34 21 214 57 44 141 33 21 216 203 204 255 255 255 251 255 255 254 252 254 251 250 254 255 254 255 255 255 255 255 255 255 255 255 255 255 255 255 255 255 255 255 255 255 255 255 255 255 255 255 255 255 255 255 255 255 
255 255 255 255 255 254 255 255 255 180 138 128 159 14 0 247 38 28 237 34 27 233 36 28 237 35 26 237 36 27 236 36 26 236 36 27 236 36 26 237 35 27 236 35 27 237 35 27 236 36 26 239 33 26 233 30 16 174 82 93 244 184 244 242 173 226 245 184 245 163 68 76 156 83 69 253 255 255 232 230 225 107 21 0 255 255 255 255 255 255 255 255 255 255 255 255 255 255 255 253 255 255 255 255 255 255 255 255 255 255 255 255 255 255 255 255 255 255 255 255 255 255 255 255 255 255 255 255 255 255 255 255 255 255 255 
255 255 255 252 255 254 255 255 255 234 222 219 117 0 0 239 45 27 234 30 30 236 38 27 237 36 26 236 35 27 237 36 27 237 36 27 237 36 27 237 36 27 237 36 27 237 36 27 236 36 27 238 33 26 230 35 19 166 83 91 247 187 240 242 173 225 244 183 246 172 79 85 227 52 30 151 23 5 224 213 211 255 255 255 255 255 255 120 27 5 150 31 25 126 27 15 192 157 149 255 255 255 255 255 255 255 255 255 255 255 255 255 255 255 255 255 255 255 255 255 255 255 255 255 255 255 255 255 255 255 255 255 255 255 255 
255 255 255 250 255 254 254 255 251 255 255 255 124 33 12 222 40 24 239 28 26 238 40 25 237 36 26 236 35 27 237 36 27 237 36 27 237 36 27 237 36 27 237 36 27 237 36 27 237 35 26 239 35 26 191 35 17 194 124 151 243 183 236 241 174 226 248 193 251 149 30 26 248 33 22 217 36 42 158 29 12 193 164 148 139 73 59 208 26 21 255 27 18 244 54 41 115 7 0 249 255 255 255 255 255 255 255 255 255 255 255 255 255 255 255 255 255 255 255 255 255 255 255 255 255 255 255 255 255 255 255 255 255 255 255 
255 255 255 251 255 255 255 255 252 252 255 255 194 153 142 210 29 13 245 31 27 235 33 28 237 36 26 237 36 27 237 36 27 237 36 27 237 36 27 237 36 27 237 36 27 237 36 27 237 35 26 239 40 28 134 25 13 255 201 252 234 175 229 242 175 230 234 174 215 131 11 0 230 58 43 247 30 20 241 46 34 141 14 11 221 40 34 231 35 26 168 37 29 143 50 41 137 37 18 236 237 235 255 255 255 255 255 255 255 255 255 255 255 255 255 255 255 255 255 255 255 255 255 255 255 255 255 255 255 255 255 255 255 255 255 
255 255 255 255 255 254 254 255 254 255 255 255 220 210 208 116 0 0 228 54 45 238 30 28 237 35 26 237 35 26 237 35 26 237 36 27 237 36 27 237 36 27 237 35 27 237 36 26 238 35 26 227 40 23 168 88 105 244 189 243 235 178 228 245 176 232 222 156 190 141 26 0 113 17 11 193 66 55 238 42 27 239 53 36 165 39 28 169 132 129 196 177 156 131 34 16 204 39 17 193 165 159 255 255 255 255 255 255 255 255 255 255 255 255 255 255 255 255 255 255 255 255 255 255 255 255 255 255 255 255 255 255 255 255 255 
255 255 255 255 253 254 254 253 255 255 255 252 255 255 255 163 124 102 148 16 0 244 43 30 238 35 26 235 37 27 235 35 27 237 35 26 237 36 27 237 35 27 236 36 27 236 35 27 241 36 27 202 21 1 196 127 159 240 183 237 243 179 224 244 178 230 211 155 202 188 27 9 228 62 35 146 25 13 146 29 12 134 43 25 142 53 40 171 34 11 134 8 0 212 71 61 155 0 0 233 233 225 255 255 255 252 255 255 255 255 254 255 255 254 255 255 255 255 255 255 255 255 255 255 255 255 255 255 255 255 255 255 255 255 255 
255 255 255 255 255 255 255 255 255 255 255 255 255 255 255 252 245 240 103 12 0 187 55 49 247 33 24 237 36 26 235 37 28 236 36 27 237 35 26 236 35 27 239 38 25 233 33 29 247 36 24 204 31 10 196 131 166 244 180 235 239 176 226 240 178 237 211 141 167 143 0 0 237 31 15 255 34 28 223 46 41 169 31 21 236 61 52 231 40 29 158 23 9 133 32 13 200 172 161 247 255 254 255 255 254 255 255 251 252 253 254 254 254 255 255 255 255 255 255 255 255 255 255 255 255 255 255 255 255 255 255 255 255 255 255 
255 255 255 255 255 255 255 255 255 255 255 255 255 254 254 255 255 255 209 171 154 117 0 0 223 40 36 243 31 25 241 36 24 236 37 27 237 35 27 236 35 27 239 38 25 233 33 29 244 38 28 177 7 0 236 180 216 239 176 232 242 176 225 245 180 242 159 61 68 205 190 173 169 130 116 134 31 15 176 10 0 216 22 2 195 28 17 133 59 50 255 255 255 255 255 255 255 255 255 255 255 255 247 255 255 252 253 253 254 255 254 254 255 254 255 255 255 255 255 255 255 255 255 255 255 255 255 255 255 255 255 255 255 255 255 
255 255 255 255 255 255 255 255 255 255 255 255 254 253 255 255 255 255 248 255 255 183 149 138 125 25 8 235 41 32 240 34 26 235 36 27 236 37 27 235 35 27 240 38 24 233 33 29 241 38 30 173 9 0 229 176 214 236 177 233 242 177 226 250 188 250 148 38 48 255 255 255 255 255 255 251 255 254 234 232 230 197 184 184 171 141 124 204 181 179 151 89 79 155 97 80 155 94 78 155 84 74 200 167 152 255 255 255 253 255 254 255 254 253 255 255 255 255 255 255 254 255 255 255 255 255 255 255 255 255 255 254 255 255 255 
255 255 255 255 255 255 255 255 255 255 255 255 255 255 255 255 255 255 255 255 255 255 255 255 237 225 222 131 29 9 218 38 35 242 34 26 240 38 25 232 37 29 245 34 23 231 42 28 239 31 32 181 5 0 226 175 223 255 185 238 243 190 250 225 159 188 143 75 50 255 255 255 252 255 254 255 255 255 255 255 255 204 182 177 159 25 5 198 14 1 241 42 30 244 28 18 240 31 20 248 33 20 134 9 0 249 249 239 251 254 255 255 252 254 253 252 253 255 255 255 255 255 255 255 255 255 255 255 252 250 254 252 255 255 255 
255 255 255 255 255 255 255 255 255 255 255 255 255 255 255 255 255 255 255 255 255 255 255 255 253 255 255 226 218 217 134 2 0 234 44 38 246 28 23 235 32 28 239 33 26 234 39 27 248 33 27 180 14 0 217 154 182 176 87 112 165 65 70 149 51 50 160 73 64 161 92 69 252 254 248 255 255 255 170 113 104 168 11 0 244 46 40 245 31 24 239 37 24 232 35 29 243 27 25 244 32 28 205 17 8 185 149 144 255 255 255 254 251 254 249 255 255 250 248 238 115 0 0 109 0 0 232 224 225 255 255 255 255 255 255 
255 255 255 255 255 255 255 255 255 255 255 255 255 255 255 255 255 255 255 255 255 254 255 255 254 255 253 255 255 255 171 105 96 152 26 6 246 46 34 240 26 27 237 28 28 235 36 27 240 34 32 176 33 17 104 11 0 232 172 204 218 157 196 250 191 242 250 190 250 218 154 194 157 57 68 127 28 22 115 0 0 171 22 10 233 42 31 227 32 32 230 37 30 241 35 24 243 32 27 182 32 21 147 78 65 235 231 230 255 255 255 255 255 255 241 239 227 130 12 0 254 51 47 174 3 0 246 255 255 253 255 255 255 255 255 
255 255 255 255 255 255 255 255 255 255 255 255 255 255 255 255 255 255 255 255 255 255 255 255 253 255 254 255 255 255 253 255 251 142 62 42 172 22 2 234 43 35 243 34 24 230 31 31 250 40 24 139 35 32 255 207 255 240 175 232 244 179 229 236 175 228 239 173 227 245 179 230 244 184 244 255 204 255 174 91 98 217 41 23 236 36 29 245 40 22 241 35 25 243 32 27 208 61 44 155 102 90 255 255 255 254 255 255 249 251 253 255 255 255 151 93 85 231 54 41 247 30 23 165 5 0 249 255 255 255 255 255 255 255 255 
255 255 255 255 255 255 255 255 255 255 255 255 255 255 255 255 255 255 255 255 255 255 255 255 255 255 254 253 254 254 255 255 255 255 255 255 138 71 59 134 10 0 235 47 31 241 27 24 217 38 18 161 74 71 255 201 255 246 171 233 240 168 227 239 177 226 238 177 227 238 177 227 243 174 224 231 180 243 206 137 163 162 19 3 225 41 27 237 35 28 243 30 26 219 39 37 107 0 0 207 186 183 255 255 255 255 255 255 255 255 255 198 117 110 227 42 26 237 36 23 235 36 31 165 5 0 250 255 255 255 255 255 255 255 255 
255 255 255 255 255 255 255 255 255 255 255 255 255 255 255 255 255 255 255 255 255 255 255 255 253 255 254 255 255 253 253 255 255 249 255 255 255 255 255 238 236 237 134 44 27 149 57 45 161 106 96 189 153 138 123 31 23 230 169 210 250 193 248 245 184 238 238 176 228 239 177 226 239 176 227 238 173 228 251 195 242 148 68 76 224 35 13 248 39 27 245 42 28 221 39 26 168 116 98 255 255 255 255 255 255 174 133 124 191 52 33 223 29 18 242 31 24 248 33 21 247 36 26 163 4 0 253 255 255 255 255 255 255 255 255 
255 255 255 255 255 255 255 255 255 255 255 255 255 255 255 255 255 255 255 255 255 255 255 255 253 255 255 255 255 252 255 255 254 253 254 253 253 254 253 255 255 255 255 255 255 255 255 255 255 255 255 255 255 255 254 243 236 129 52 37 150 57 46 176 96 118 255 199 238 245 183 241 234 177 230 242 169 226 241 187 249 190 133 145 145 21 9 161 15 10 153 26 13 133 2 0 168 112 105 193 161 160 141 40 27 216 50 31 241 27 23 246 36 23 235 35 29 232 33 29 241 39 27 175 15 6 227 217 214 255 255 255 255 255 255 
255 255 255 255 255 255 255 255 255 255 255 255 255 255 255 255 255 255 255 255 255 255 255 255 255 255 255 255 255 255 255 255 255 255 255 255 255 255 255 255 255 255 255 255 255 255 255 255 255 255 255 253 255 254 249 255 255 255 255 255 255 255 255 194 154 139 136 50 36 159 76 96 255 196 249 254 196 253 222 164 191 167 32 20 239 40 34 240 31 31 239 41 32 244 40 28 235 28 19 232 26 18 245 36 22 246 35 22 232 35 29 234 35 28 237 36 26 237 36 26 241 35 24 224 30 22 176 130 121 255 255 255 255 255 255 
255 255 255 255 255 255 255 255 255 255 255 255 255 255 255 255 255 255 255 255 255 255 255 255 255 255 255 255 255 255 255 255 255 255 255 255 255 255 255 255 255 255 255 255 255 255 255 255 255 255 255 254 255 254 250 255 252 253 255 253 255 255 255 252 255 255 255 255 255 167 118 98 149 62 53 114 15 7 156 37 23 236 48 29 237 37 26 240 37 25 238 38 25 235 37 28 241 37 25 244 37 23 230 30 32 235 33 28 237 36 26 237 35 26 237 35 26 236 36 27 244 36 24 220 18 9 182 136 126 255 255 255 255 255 255 
255 255 255 255 255 255 255 255 255 255 255 255 255 255 255 255 255 255 255 255 255 255 255 255 255 255 255 255 255 255 255 255 255 255 255 255 255 255 255 255 255 255 255 255 255 255 255 255 255 255 255 254 254 254 254 251 253 254 252 255 253 253 255 252 252 254 252 255 255 255 255 255 255 255 255 222 203 188 141 29 15 237 35 33 241 31 28 237 33 27 239 31 26 233 30 30 233 30 30 236 31 28 244 38 23 237 35 26 234 32 29 235 40 27 236 35 28 242 29 23 244 36 23 182 48 35 197 176 164 255 255 255 255 255 255 
255 255 255 255 255 255 255 255 255 255 255 255 255 255 255 255 255 255 255 255 255 255 255 255 255 255 255 255 255 255 255 255 255 255 255 255 255 255 255 255 255 255 255 255 255 255 255 255 255 255 255 255 255 255 255 255 255 255 255 255 255 255 255 255 255 255 255 255 255 255 255 255 255 254 255 255 255 255 233 221 212 141 0 0 221 29 9 233 43 30 242 30 23 238 38 26 237 38 26 235 39 27 239 36 26 236 37 27 234 37 27 243 35 22 241 31 23 232 54 41 145 39 32 188 153 143 255 255 255 249 250 255 255 255 255 
255 255 255 255 255 255 255 255 255 255 255 255 255 255 255 255 255 255 255 255 255 255 255 255 255 255 255 255 255 255 255 255 255 255 255 255 255 255 255 255 255 255 255 255 255 255 255 255 255 255 255 255 255 255 255 255 255 255 255 255 255 255 255 255 255 255 255 255 255 255 255 255 255 255 253 251 255 255 255 255 255 196 177 176 182 148 137 140 53 44 212 48 34 236 32 24 245 31 23 239 26 26 241 31 25 239 30 25 240 31 26 214 40 37 157 37 24 148 80 65 247 244 240 255 255 255 253 255 255 255 251 252 255 255 255 
255 255 255 255 255 255 255 255 255 255 255 255 255 255 255 255 255 255 255 255 255 255 255 255 255 255 255 255 255 255 255 255 255 255 255 255 255 255 255 255 255 255 255 255 255 255 255 255 255 255 255 255 255 255 255 255 255 255 255 255 255 255 255 255 255 255 255 255 255 255 255 255 253 255 254 255 253 252 249 252 253 255 255 255 255 255 255 255 255 255 181 143 137 154 68 53 161 51 36 161 46 39 160 54 38 158 53 38 156 48 33 164 105 88 248 255 255 255 255 255 255 255 255 255 251 255 252 252 255 254 255 254 255 255 255 
255 255 255 255 255 255 255 255 255 255 255 255 255 255 255 255 255 255 255 255 255 255 255 255 255 255 255 255 255 255 255 255 255 255 255 255 255 255 255 255 255 255 255 255 255 255 255 255 255 255 255 255 255 255 255 255 255 255 255 255 255 255 255 255 255 255 255 255 255 255 255 255 255 255 255 255 255 255 255 255 255 255 255 255 255 255 255 255 255 255 255 255 255 255 255 255 255 255 255 255 255 255 255 255 255 255 255 255 255 255 255 255 255 255 255 255 255 255 255 255 255 255 255 255 255 255 255 255 255 255 255 255 255 255 255 
