P3
73 45
255
255 255 255 255 255 255 255 255 255 255 255 255 255 255 255 255 255 255 255 255 255 255 255 255 255 255 255 255 255 255 255 255 255 255 255 255 255 255 255 255 255 255 255 255 255 255 255 255 255 255 255 255 255 255 255 255 255 255 255 255 255 255 255 255 255 255 255 255 255 255 255 255 255 255 255 255 255 255 255 255 255 255 255 255 255 255 255 255 255 255 255 255 255 255 255 255 255 255 255 255 255 255 255 255 255 255 255 255 255 255 255 255 255 255 255 255 255 255 255 255 255 255 255 255 255 255 255 255 255 255 255 255 255 255 255 255 255 255 255 255 255 255 255 255 255 255 255 255 255 255 255 255 255 255 255 255 255 255 255 255 255 255 255 255 255 255 255 255 255 255 255 255 255 255 255 255 255 255 255 255 255 255 255 255 255 255 255 255 255 255 255 255 255 255 255 255 255 255 255 255 255 255 255 255 255 255 255 255 255 255 255 255 255 255 255 255 255 255 255 
255 255 255 255 255 255 255 255 255 255 255 255 255 255 255 255 255 255 255 255 255 255 255 255 255 255 255 255 255 255 255 255 255 255 255 255 255 255 255 255 255 255 255 255 255 255 255 255 255 253 254 255 255 254 251 255 255 250 255 254 252 255 254 255 255 254 254 254 253 255 252 255 252 255 255 255 255 255 255 255 255 255 255 255 193 159 150 201 160 153 179 132 121 183 137 123 178 137 122 175 139 127 211 193 186 205 193 187 205 194 187 205 195 188 196 174 168 177 128 119 186 132 120 181 131 120 184 131 120 184 131 120 184 131 120 184 131 120 184 131 120 184 131 120 178 130 122 183 128 115 197 171 162 255 255 255 255 255 255 255 255 255 249 254 255 255 253 255 253 254 255 253 255 255 255 255 255 255 255 255 255 255 255 255 255 255 255 255 255 255 255 255 255 255 255 255 255 255 255 255 255 255 255 255 255 255 255 255 255 255 255 255 255 255 255 255 255 255 255 
255 255 255 255 255 255 255 255 255 255 255 255 255 255 255 255 255 255 255 255 255 255 255 255 255 255 255 255 255 255 255 255 255 255 255 255 255 255 255 255 255 255 255 255 255 255 255 255 254 253 255 254 255 254 255 255 252 254 255 251 255 255 255 255 255 255 255 255 255 255 255 255 255 255 255 210 200 191 190 150 139 129 23 0 131 46 32 127 5 0 160 18 5 161 8 0 206 19 7 207 14 5 192 8 2 196 12 1 204 13 0 202 12 0 207 21 11 217 28 23 228 24 13 220 24 16 221 24 16 221 24 16 221 24 16 221 24 16 221 24 16 221 24 16 222 22 15 230 27 13 188 11 2 140 16 9 162 115 111 219 212 206 255 255 255 253 255 255 252 255 255 255 255 251 255 255 255 255 255 255 255 255 255 255 255 255 255 255 255 255 255 255 255 255 255 255 255 255 255 255 255 255 255 255 255 255 255 255 255 255 255 255 255 255 255 255 255 255 255 
255 255 255 255 255 255 255 255 255 255 255 255 255 255 255 255 255 255 255 255 255 255 255 255 255 255 255 255 255 255 255 255 255 255 255 255 255 255 255 255 255 255 255 255 255 255 255 255 255 255 252 255 255 255 252 255 255 255 255 255 234 222 219 180 138 128 176 111 96 123 35 15 123 17 0 119 0 0 125 0 0 151 21 15 202 40 26 230 45 28 245 44 28 250 36 26 241 35 27 241 37 27 244 37 26 240 37 27 236 38 30 236 38 30 238 38 28 241 37 25 244 37 23 241 37 25 241 37 25 241 37 26 241 37 25 241 37 26 241 37 25 242 37 25 239 37 26 232 38 30 241 40 27 251 42 24 221 36 24 152 12 0 149 90 76 255 255 252 253 255 255 246 251 255 255 255 255 255 255 255 255 255 255 255 255 255 255 255 255 255 255 255 255 255 255 255 255 255 255 255 255 255 255 255 255 255 255 255 255 255 255 255 255 255 255 255 255 255 255 
255 255 255 255 255 255 255 255 255 255 255 255 255 255 255 255 255 255 255 255 255 255 255 255 255 255 255 255 255 255 255 255 255 255 255 255 255 255 255 254 253 255 255 254 254 255 255 255 255 255 255 220 210 208 194 153 142 124 33 12 117 0 0 159 14 0 170 15 4 206 40 29 228 40 24 238 44 33 247 45 27 246 40 28 241 33 29 233 34 30 233 33 28 235 35 28 236 36 27 236 35 27 236 35 27 235 35 28 236 35 27 236 35 27 236 34 27 235 33 28 234 33 29 235 33 28 239 34 26 241 33 25 241 34 25 241 34 25 238 34 26 234 34 28 235 34 28 242 33 24 239 32 26 231 32 29 236 31 28 247 41 27 198 46 32 130 6 0 198 161 158 255 255 255 254 253 255 255 254 254 254 255 254 254 255 255 255 255 255 255 255 255 255 255 255 255 255 255 255 255 255 255 255 255 255 255 255 255 255 255 255 255 255 255 255 255 255 255 255 
255 255 255 255 255 255 255 255 255 255 255 255 255 255 255 255 255 255 255 255 255 255 255 255 255 255 255 255 255 255 255 255 255 255 255 255 255 255 255 255 255 255 255 255 255 252 245 240 163 124 102 116 0 0 210 29 13 222 40 24 239 45 27 247 38 28 242 33 29 245 33 25 236 33 29 236 29 28 237 26 31 254 39 24 246 34 29 245 34 24 239 33 27 238 32 27 237 35 27 237 36 26 237 36 26 237 36 26 237 36 26 237 36 26 236 36 26 238 36 26 239 36 26 239 36 26 226 31 33 235 33 30 241 37 28 235 32 30 241 32 25 243 35 24 237 35 26 236 36 27 236 36 27 237 36 26 237 36 26 237 35 26 241 33 25 240 43 36 170 22 6 179 154 143 255 255 255 248 255 255 255 255 252 254 254 255 255 255 255 255 255 255 255 255 255 255 255 255 255 255 255 255 255 255 255 255 255 255 255 255 255 255 255 255 255 255 255 255 255 
255 255 255 255 255 255 255 255 255 255 255 255 255 255 255 255 255 255 255 255 255 255 255 255 255 255 255 255 255 255 255 255 255 255 255 255 255 255 255 248 255 255 209 171 154 103 12 0 148 16 0 228 54 45 245 31 27 239 28 26 234 30 30 237 34 27 239 37 25 227 32 32 250 30 22 255 45 28 220 43 29 121 18 13 135 22 12 215 44 32 255 45 27 244 30 24 235 34 28 237 36 26 236 36 27 237 36 27 237 36 27 236 36 27 237 36 27 238 35 26 235 36 28 236 34 26 255 42 24 223 50 34 187 31 17 227 43 30 252 45 29 243 33 26 236 35 29 237 36 26 237 35 26 236 36 27 237 36 27 236 36 27 241 34 25 245 29 22 243 49 39 163 20 9 181 154 148 255 255 255 254 255 255 254 254 255 255 255 255 255 255 255 255 255 255 255 255 255 255 255 255 255 255 255 255 255 255 255 255 255 255 255 255 255 255 255 255 255 255 
255 255 255 255 255 255 255 255 255 255 255 255 255 255 255 255 255 255 255 255 255 255 255 255 255 255 255 255 255 255 254 255 255 255 255 255 255 255 255 183 149 138 117 0 0 187 55 49 244 43 30 238 30 28 235 33 28 238 40 25 236 38 27 233 36 28 243 35 24 235 31 29 250 48 33 65 6 4 0 0 0 75 93 94 69 84 94 0 0 0 86 11 4 243 46 36 241 33 25 236 36 27 237 36 27 236 36 27 237 36 27 236 36 27 238 35 26 240 36 25 238 36 29 237 40 36 51 2 0 0 0 0 27 45 47 0 0 0 49 0 0 229 45 35 248 35 23 236 36 27 236 36 27 237 36 27 236 36 27 236 35 27 238 37 26 231 34 29 241 30 26 244 42 29 179 19 6 135 65 48 242 244 238 255 255 255 255 255 255 255 255 254 255 255 255 255 255 255 255 255 255 255 255 255 255 255 255 255 255 255 255 255 255 255 255 255 255 255 255 
255 255 255 255 255 255 255 255 255 255 255 255 255 255 255 255 255 255 253 255 255 253 255 254 255 255 254 253 255 254 254 255 253 253 255 255 237 225 222 125 25 8 223 40 36 247 33 24 238 35 26 237 35 26 237 36 26 237 36 26 237 36 26 237 35 26 237 38 26 255 35 31 60 5 0 61 73 71 255 255 255 255 255 255 255 255 255 255 255 255 35 54 59 82 8 5 255 41 25 231 33 30 240 36 25 236 36 27 237 36 27 237 36 26 234 33 29 241 38 25 250 38 36 2 0 0 89 102 103 255 255 255 255 255 255 255 255 255 98 115 113 6 0 0 244 52 33 237 24 30 231 41 29 242 33 25 236 36 27 237 36 27 236 35 27 236 36 27 236 36 27 237 35 26 245 37 26 225 29 28 134 70 58 255 255 255 248 251 254 255 255 253 252 255 255 255 255 255 255 255 255 255 255 255 255 255 255 255 255 255 255 255 255 255 255 255 255 255 255 
255 255 255 255 255 255 255 255 255 255 255 255 255 255 255 255 255 255 255 255 252 255 255 253 253 254 254 255 255 255 255 255 255 226 218 217 131 29 9 235 41 32 243 31 25 237 36 26 235 37 27 237 35 26 237 36 27 236 35 27 236 35 27 237 36 27 242 34 26 201 38 30 0 0 2 255 255 255 254 254 254 255 255 255 255 255 255 253 253 253 255 255 255 0 0 0 205 44 33 252 38 20 235 35 27 236 34 26 237 36 27 237 36 26 233 33 29 250 36 26 119 22 14 48 68 68 255 255 255 254 254 254 255 255 255 255 253 255 255 255 255 58 80 81 114 19 10 254 34 26 238 38 25 235 33 28 237 36 26 237 36 27 237 36 27 237 36 26 236 36 26 237 35 27 241 38 25 243 34 25 183 40 19 201 174 171 254 255 255 255 255 254 254 254 255 255 255 255 255 255 255 255 255 255 255 255 255 255 255 255 255 255 255 255 255 255 255 255 255 
255 255 255 255 255 255 255 255 255 255 255 255 255 255 255 255 255 255 255 255 254 253 255 255 255 255 255 253 255 251 171 105 96 134 2 0 218 38 35 240 34 26 241 36 24 235 37 28 235 35 27 237 35 26 237 36 27 237 36 27 237 36 27 236 36 26 252 32 27 113 17 8 102 114 114 255 255 255 255 255 255 99 99 99 172 172 172 255 255 255 255 255 255 87 100 103 115 12 10 255 46 22 228 35 31 239 34 26 236 36 27 237 36 26 237 35 27 255 37 28 23 0 0 208 211 215 255 255 255 253 253 253 127 127 127 224 220 225 255 255 255 226 228 223 0 0 0 251 43 33 246 35 22 232 35 30 237 36 26 237 36 27 237 36 27 237 36 27 237 36 27 236 35 26 228 39 31 235 33 28 239 39 31 130 27 12 255 255 255 254 255 255 255 253 255 255 255 255 255 255 255 255 255 255 255 255 255 255 255 255 255 255 255 255 255 255 255 255 255 
255 255 255 255 255 255 255 255 255 255 255 255 255 255 255 255 255 255 253 254 253 249 255 255 255 255 255 142 62 42 152 26 6 234 44 38 242 34 26 235 36 27 236 37 27 236 36 27 237 35 26 237 36 27 237 36 27 237 36 27 237 36 27 236 36 27 255 32 27 88 9 0 139 148 141 255 255 255 255 255 255 17 17 17 0 0 0 255 255 255 255 255 255 115 126 132 104 8 9 255 48 24 228 36 31 240 34 26 236 36 27 237 36 26 232 33 30 252 42 33 0 0 0 247 247 255 255 255 255 179 179 179 0 0 0 85 84 84 255 255 255 255 255 255 0 0 0 251 49 34 235 35 29 238 34 26 236 36 26 237 36 27 237 36 27 237 36 27 237 36 27 237 35 26 236 36 26 238 35 26 241 32 23 216 52 44 146 95 81 255 255 255 252 253 255 255 255 255 255 255 255 255 255 255 255 255 255 255 255 255 255 255 255 255 255 255 255 255 255 
255 255 255 255 255 255 255 255 255 255 255 255 255 255 255 255 255 255 253 254 253 255 255 255 138 71 59 172 22 2 246 46 34 246 28 23 240 38 25 236 37 27 237 35 27 237 35 26 237 36 27 237 36 27 237 36 27 237 36 27 237 36 27 236 36 26 247 33 27 157 30 21 33 50 56 255 255 255 253 253 253 255 255 255 210 209 210 255 255 255 255 255 255 23 38 39 155 27 22 255 41 20 232 35 29 237 34 26 236 36 27 237 36 26 235 35 27 255 44 27 0 0 0 216 222 221 255 255 255 255 255 255 233 233 234 255 255 255 255 255 255 225 233 234 0 0 0 251 43 32 243 37 23 235 33 28 237 36 26 237 36 27 237 36 27 237 36 27 237 36 27 237 36 27 237 35 26 236 36 26 237 35 26 245 39 25 154 29 12 168 121 106 255 255 255 255 255 255 255 255 255 255 255 255 255 255 255 255 255 255 255 255 255 255 255 255 255 255 255 
255 255 255 255 255 255 255 255 255 255 255 255 255 255 255 255 255 255 255 255 255 238 236 237 134 10 0 234 43 35 240 26 27 235 32 28 232 37 29 235 35 27 236 35 27 236 35 27 237 35 27 237 36 27 237 36 27 237 36 27 237 36 27 237 35 27 238 36 26 247 43 37 0 0 0 208 215 213 255 255 255 255 255 255 255 255 255 255 255 255 190 197 193 0 0 0 249 49 33 240 34 25 239 36 26 236 35 27 237 36 27 236 35 27 238 37 26 249 33 29 117 17 11 64 81 80 255 255 255 254 253 254 255 255 255 255 255 255 255 255 255 86 95 94 102 13 10 255 35 29 240 39 24 233 32 29 237 36 26 237 36 27 237 36 27 237 36 27 237 36 27 237 36 27 237 36 27 237 36 27 237 35 26 236 37 28 238 40 27 114 6 0 251 255 252 255 255 255 255 255 255 255 255 255 255 255 255 255 255 255 255 255 255 255 255 255 255 255 255 
255 255 255 255 255 255 255 255 255 255 255 255 255 255 255 255 255 255 255 255 255 134 44 27 235 47 31 243 34 24 237 28 28 239 33 26 245 34 23 240 38 24 239 38 25 239 38 25 236 36 27 237 35 27 237 36 27 237 36 27 237 36 27 236 35 27 240 37 25 248 29 27 180 45 32 0 0 0 111 123 125 233 241 241 234 234 237 121 137 132 0 0 0 187 40 37 253 33 21 231 34 29 238 36 26 236 36 27 237 36 27 236 35 27 238 37 25 236 29 30 245 47 30 0 0 0 113 127 129 255 255 255 255 255 255 255 255 255 145 163 157 0 0 0 229 50 36 245 31 24 234 38 28 236 33 27 237 36 26 237 36 27 237 36 27 237 36 27 237 36 27 237 36 27 237 36 27 237 36 27 237 36 26 231 33 29 247 33 20 184 74 60 195 160 150 255 255 255 254 255 254 254 254 254 255 255 255 255 255 255 255 255 255 255 255 255 255 255 255 
255 255 255 255 255 255 255 255 255 255 255 255 255 255 255 255 255 255 255 255 255 149 57 45 241 27 24 230 31 31 235 36 27 234 39 27 231 42 28 233 33 29 233 33 29 233 33 29 236 35 27 237 36 26 237 36 27 237 36 27 237 36 27 237 35 27 237 36 26 227 32 32 255 36 22 205 49 33 71 8 3 0 0 0 0 0 0 56 2 2 229 52 27 254 34 23 234 32 28 237 36 26 236 36 27 237 36 27 237 36 27 236 35 27 237 38 26 230 35 30 255 30 19 222 44 32 41 0 0 0 8 15 57 70 69 0 19 14 10 0 0 221 37 37 248 31 26 236 36 27 237 35 26 237 36 26 237 36 27 237 36 27 237 36 27 237 36 27 237 36 27 237 36 27 237 36 27 237 36 27 237 35 27 237 36 26 238 33 25 243 49 34 118 4 0 255 255 255 252 255 254 253 253 253 255 255 255 255 255 255 255 255 255 255 255 255 255 255 255 
255 255 255 255 255 255 255 255 255 255 255 255 255 255 255 255 255 255 255 255 255 161 106 96 217 38 18 250 40 24 240 34 32 248 33 27 239 31 32 241 38 30 244 38 28 247 36 24 241 36 27 238 35 26 237 35 26 237 35 26 236 36 27 236 36 26 238 36 26 235 33 28 236 30 28 247 30 25 255 29 29 238 46 39 253 46 32 255 37 25 239 33 29 238 32 27 238 35 26 236 36 26 236 36 27 236 36 27 236 36 27 236 35 27 238 37 25 236 35 27 235 31 29 242 31 27 248 34 35 218 38 20 164 26 15 184 32 28 255 42 28 229 40 32 240 40 24 236 35 27 237 36 26 236 36 26 236 35 27 237 35 26 236 35 27 237 36 26 237 36 26 237 35 26 236 36 26 236 36 27 236 35 27 238 39 26 234 31 28 253 34 24 146 11 0 255 255 255 251 255 255 255 253 253 255 255 255 255 255 255 255 255 255 255 255 255 255 255 255 
255 255 255 255 255 255 255 255 255 255 255 255 254 254 254 254 255 254 253 255 254 189 153 138 161 74 71 139 35 32 176 33 17 180 14 0 181 5 0 173 9 0 177 7 0 204 31 10 202 21 1 227 40 23 239 40 28 239 35 26 238 33 26 239 33 26 235 31 29 240 32 26 239 35 27 237 32 28 237 35 28 244 38 23 235 32 29 240 31 27 234 33 29 233 35 30 235 31 28 238 31 26 247 34 25 247 35 26 245 36 28 245 36 27 242 35 29 244 36 28 243 39 27 243 38 25 239 32 27 237 35 29 246 29 29 247 29 28 237 38 26 237 29 28 237 29 29 236 33 28 236 33 28 238 35 27 239 38 26 237 38 26 237 36 25 235 33 28 235 34 27 240 37 28 243 36 28 244 37 28 244 34 28 241 37 28 246 37 25 227 41 26 145 53 42 255 255 255 251 255 254 253 254 253 255 255 255 255 255 255 255 255 255 255 255 255 255 255 255 
255 255 255 255 255 255 255 255 255 255 255 255 254 251 253 250 255 252 249 255 255 254 243 236 255 201 255 255 207 255 104 11 0 217 154 182 226 175 223 229 176 214 236 180 216 196 131 166 196 127 159 168 88 105 134 25 13 191 35 17 230 35 19 233 30 16 231 30 17 234 32 15 233 32 16 234 32 15 233 32 16 233 31 15 233 32 16 233 32 15 234 32 16 234 31 15 236 36 15 229 47 25 183 23 9 166 10 0 171 8 0 171 8 0 172 10 0 172 13 0 168 11 0 192 30 11 236 32 16 234 32 16 234 32 15 233 32 16 234 31 15 233 32 16 234 32 15 233 32 16 234 32 15 233 27 17 227 22 20 229 22 21 248 35 26 245 38 22 245 43 24 183 10 1 176 9 0 177 10 0 178 8 0 182 36 17 144 27 21 168 82 77 156 97 82 255 255 255 254 255 252 251 255 255 255 255 255 255 255 255 255 255 255 255 255 255 255 255 255 
255 255 255 255 255 255 255 255 255 255 255 255 254 252 255 253 255 253 255 255 255 129 52 37 230 169 210 240 175 232 232 172 204 176 87 112 255 185 238 236 177 233 239 176 232 244 180 235 240 183 237 244 189 243 255 201 252 194 124 151 166 83 91 174 82 93 173 82 95 171 84 95 170 84 96 171 84 95 170 84 96 171 84 95 170 84 96 171 84 95 170 84 96 170 84 95 174 84 94 161 78 94 219 161 186 231 176 211 227 169 209 227 170 209 228 170 209 227 173 209 234 179 213 183 112 138 169 81 91 170 84 96 171 84 95 170 84 96 171 84 95 170 84 96 171 84 95 170 84 96 171 84 95 169 87 95 167 92 94 170 92 92 155 57 54 158 40 43 148 31 34 220 162 193 233 174 209 227 168 215 231 178 207 104 10 1 240 183 222 248 194 253 157 64 59 223 211 206 255 255 255 253 255 254 255 255 255 255 255 255 255 255 255 255 255 255 255 255 255 
255 255 255 255 255 255 255 255 255 255 255 255 253 253 255 255 255 255 255 255 255 150 57 46 250 193 248 244 179 229 218 157 196 165 65 70 243 190 250 242 177 226 242 176 225 239 176 226 243 179 224 235 178 228 234 175 229 243 183 236 247 187 240 244 184 244 238 183 246 246 186 242 246 186 242 247 185 242 247 185 242 247 185 242 247 186 242 247 185 242 247 185 242 247 184 242 244 190 242 244 187 242 239 175 236 241 172 233 242 173 232 242 173 232 243 174 231 242 176 231 238 176 234 248 182 237 247 185 242 247 185 242 247 185 242 247 185 242 247 185 242 247 185 242 247 185 242 247 185 242 246 186 242 248 183 241 244 181 244 243 181 246 251 187 245 246 197 247 253 191 245 236 176 236 241 177 231 242 173 240 213 141 166 197 119 140 249 184 240 235 168 234 248 186 240 110 5 0 255 255 255 254 255 252 255 255 255 255 255 255 255 255 255 255 255 255 255 255 255 
255 255 255 255 255 255 255 255 255 255 255 255 252 252 254 252 255 255 194 154 139 176 96 118 245 184 238 236 175 228 250 191 242 149 51 50 225 159 188 250 188 250 245 180 242 240 178 237 244 178 230 245 176 232 242 175 230 241 174 226 242 173 225 242 173 226 240 174 226 239 176 227 242 174 225 241 173 226 238 177 227 239 176 227 239 177 226 238 168 229 253 189 240 255 190 244 255 187 244 255 189 244 255 188 244 252 190 241 249 194 240 249 193 240 249 194 240 249 193 241 249 193 240 249 193 240 245 180 233 238 168 228 239 175 226 239 176 226 239 176 227 239 176 226 239 176 227 239 176 226 239 176 226 237 176 227 235 176 229 237 176 228 239 176 227 242 176 225 241 175 226 240 177 227 237 176 228 254 176 239 190 115 139 188 100 131 244 185 237 237 177 228 250 188 244 160 63 59 251 255 255 254 255 254 255 255 255 255 255 255 255 255 255 255 255 255 255 255 255 
255 255 255 255 255 255 255 255 255 255 255 255 252 255 255 255 255 255 136 50 36 255 199 238 238 176 228 239 173 227 250 190 250 160 73 64 143 75 50 148 38 48 159 61 68 211 141 167 211 155 202 222 156 190 234 174 215 248 193 251 244 183 246 245 184 245 242 178 239 242 178 238 234 174 231 238 176 226 238 177 227 238 177 227 238 176 227 255 193 240 85 60 76 52 48 53 58 52 53 62 53 53 61 51 52 56 42 49 64 45 60 64 45 59 64 45 59 64 45 59 64 45 59 55 38 49 170 127 154 245 183 234 239 173 228 238 177 226 238 177 227 238 177 227 238 177 227 239 177 227 238 176 226 242 175 226 243 171 224 241 172 227 238 174 231 237 180 240 240 179 238 245 183 240 244 187 249 242 174 211 133 45 46 255 190 234 238 177 228 238 177 227 247 177 231 212 150 184 157 87 68 255 255 255 255 255 255 255 255 255 255 255 255 255 255 255 255 255 255 
255 255 255 255 255 255 255 255 255 255 255 255 255 255 255 167 118 98 159 76 96 245 183 241 239 177 226 245 179 230 218 154 194 161 92 69 255 255 255 255 255 255 205 190 173 143 0 0 188 27 9 141 26 0 131 11 0 149 30 26 172 79 85 163 68 76 190 104 114 204 134 156 255 205 250 252 187 240 240 180 232 238 176 227 238 177 226 239 170 228 253 195 242 253 197 244 255 184 246 255 182 247 255 182 246 255 186 244 255 191 242 255 190 242 255 190 242 255 190 242 255 190 242 255 190 242 245 185 233 238 170 228 238 175 226 239 177 226 240 179 230 241 180 233 244 184 237 243 183 237 247 189 245 248 194 249 253 199 250 255 202 249 246 181 222 190 104 129 210 125 148 167 71 92 150 57 59 135 56 35 148 42 33 254 201 255 238 176 227 239 177 226 233 169 229 255 192 245 141 49 33 255 255 255 255 255 255 255 255 255 255 255 255 255 255 255 255 255 255 
255 255 255 253 255 254 255 255 253 255 254 255 255 255 255 149 62 53 255 196 249 234 177 230 239 176 227 243 174 224 157 57 68 252 254 248 252 255 254 255 255 255 169 130 116 237 31 15 228 62 35 113 17 11 230 58 43 248 33 22 227 52 30 156 83 69 213 192 188 153 28 12 142 31 16 149 54 64 225 151 191 253 194 248 248 184 241 248 183 243 248 183 243 249 182 242 244 188 244 250 190 241 247 186 242 242 181 240 245 178 237 244 179 237 246 178 236 244 179 238 235 173 231 242 173 228 243 174 234 243 172 229 244 182 237 247 193 249 236 167 211 217 147 180 196 112 142 195 125 150 164 76 79 126 18 5 122 16 0 153 3 0 122 0 0 181 143 129 201 176 175 203 174 165 255 255 255 255 255 255 194 145 133 190 116 135 247 181 235 241 174 226 233 175 229 247 181 234 200 126 145 125 53 37 255 255 255 251 255 252 252 251 252 255 255 255 255 255 255 
255 255 255 255 253 252 251 255 255 255 255 255 222 203 188 114 15 7 254 196 253 242 169 226 238 173 228 231 180 243 255 204 255 255 255 255 255 255 255 251 255 254 134 31 15 255 34 28 146 25 13 193 66 55 247 30 20 217 36 42 151 23 5 253 255 255 198 176 166 214 26 7 141 23 15 241 244 237 175 116 98 119 38 27 151 65 73 154 59 71 154 59 70 154 59 71 154 58 54 144 52 46 149 61 66 194 111 129 191 102 130 191 102 130 192 104 128 187 110 130 255 191 231 247 179 230 218 143 180 249 189 228 188 109 136 162 66 64 138 21 9 184 157 133 136 45 33 205 34 15 231 30 18 217 51 43 115 15 3 247 64 46 214 27 16 182 154 144 255 255 255 255 255 255 253 255 254 250 252 251 255 255 255 132 49 44 249 191 244 239 172 227 244 177 223 236 171 229 250 192 249 167 73 73 244 250 252 252 255 255 254 252 254 255 255 255 255 255 255 
255 255 255 249 252 253 255 255 255 233 221 212 141 29 15 156 37 23 222 164 191 241 187 249 251 195 242 206 137 163 174 91 98 170 113 104 255 255 255 234 232 230 176 10 0 223 46 41 146 29 12 238 42 27 241 46 34 158 29 12 224 213 211 232 230 225 147 34 21 214 41 32 164 103 92 255 255 255 255 255 255 255 255 255 255 253 253 255 255 254 255 255 253 255 255 253 253 255 255 255 255 255 240 230 228 213 193 184 215 200 188 215 200 188 217 199 189 215 178 172 141 74 59 155 74 59 180 130 123 124 62 49 201 162 145 153 32 17 207 13 4 214 192 182 230 222 210 164 24 2 249 37 29 238 28 34 172 72 57 168 23 17 248 35 26 141 53 39 255 255 255 252 255 255 254 255 254 255 255 255 255 255 255 138 54 36 250 193 241 235 180 242 237 174 230 241 168 227 249 190 246 150 62 68 185 133 115 255 255 255 252 254 253 255 255 255 255 255 255 
255 255 255 255 255 255 196 177 176 141 0 0 237 35 33 236 48 29 167 32 20 190 133 145 148 68 76 162 19 3 171 22 10 168 11 0 204 182 177 197 184 184 216 22 2 169 31 21 134 43 25 239 53 36 141 14 11 193 164 148 255 255 255 107 21 0 214 57 44 160 0 0 246 255 249 248 252 255 255 252 253 251 255 255 255 255 254 255 255 255 255 255 255 255 255 255 255 255 253 253 255 254 254 255 255 255 255 255 255 255 255 255 255 255 255 255 255 255 255 255 255 255 255 255 255 255 255 255 255 255 255 255 255 255 255 156 82 67 232 46 28 140 65 57 255 255 255 186 163 164 176 34 22 251 37 23 242 37 21 128 29 14 255 49 32 158 4 0 237 238 231 255 255 255 252 253 252 255 255 255 194 154 147 128 15 0 148 58 66 208 134 159 246 184 239 247 180 240 246 190 223 138 43 41 165 32 11 200 179 176 255 255 255 255 255 254 255 255 254 
255 255 255 255 255 255 182 148 137 221 29 9 241 31 28 237 37 26 239 40 34 145 21 9 224 35 13 225 41 27 233 42 31 244 46 40 159 25 5 171 141 124 195 28 17 236 61 52 142 53 40 165 39 28 221 40 34 139 73 59 255 255 255 255 255 255 141 33 21 187 33 22 172 117 111 255 255 255 255 255 255 255 255 255 255 255 255 255 255 255 255 255 255 255 255 255 255 255 255 255 255 255 255 255 255 255 255 255 255 255 255 255 255 255 255 255 255 255 255 255 255 255 255 255 255 255 255 255 254 253 255 255 255 255 255 217 217 220 171 7 0 210 54 36 99 14 0 255 255 255 171 120 104 152 24 19 247 42 36 129 42 15 162 24 26 202 12 5 210 187 184 255 255 255 255 255 255 223 211 203 151 21 9 190 29 16 204 33 18 179 27 11 118 37 36 217 162 171 138 30 24 235 51 29 241 39 29 158 9 0 166 123 113 255 255 255 253 255 254 
255 255 255 255 255 255 140 53 44 233 43 30 237 33 27 240 37 25 240 31 31 161 15 10 248 39 27 237 35 28 245 40 22 245 31 24 198 14 1 204 181 179 133 59 50 231 40 29 171 34 11 169 132 129 231 35 26 208 26 21 120 27 5 255 255 255 216 203 204 178 23 2 169 28 7 221 207 202 255 255 255 255 255 255 255 255 255 255 255 255 255 255 255 255 255 255 255 255 255 255 255 255 255 255 255 255 255 255 255 255 255 255 255 255 255 255 255 255 255 255 255 255 255 255 255 255 255 255 253 249 254 255 255 255 255 208 179 168 182 24 11 141 29 18 242 228 229 255 255 255 158 116 107 219 45 25 176 38 26 137 58 41 235 61 44 208 18 4 202 172 164 255 255 255 255 255 255 123 15 0 245 55 40 224 34 32 240 35 30 242 41 28 214 40 19 150 7 0 236 48 35 240 27 27 239 26 28 241 32 22 164 84 74 255 255 255 249 254 255 
255 255 255 181 143 137 212 48 34 242 30 23 239 31 26 238 38 25 239 41 32 153 26 13 245 42 28 243 30 26 230 37 30 239 37 24 241 42 30 151 89 79 255 255 255 158 23 9 134 8 0 196 177 156 168 37 29 255 27 18 150 31 25 255 255 255 255 255 255 143 50 36 140 25 12 238 235 231 255 255 255 255 255 255 255 255 255 255 255 255 255 255 255 255 255 255 255 255 255 255 255 255 255 255 255 255 255 255 255 255 255 255 255 255 255 255 255 255 255 255 255 255 255 255 255 255 255 255 252 252 255 255 235 228 218 147 19 8 193 28 11 187 164 159 255 255 255 131 54 29 181 12 8 228 34 32 170 103 88 164 39 29 235 44 36 131 36 19 238 234 228 255 255 255 242 241 237 164 4 0 247 32 26 243 40 24 234 34 29 242 33 25 251 36 26 159 18 13 238 54 30 240 38 22 232 33 29 246 38 24 143 38 24 254 255 247 253 255 255 
255 255 255 154 68 53 236 32 24 238 38 26 233 30 30 235 37 28 244 40 28 133 2 0 221 39 26 219 39 37 241 35 24 232 35 29 244 28 18 155 97 80 255 255 255 133 32 13 212 71 61 131 34 16 143 50 41 244 54 41 126 27 15 255 255 255 251 255 255 217 193 179 163 118 113 255 255 255 255 255 255 255 255 255 255 255 255 255 255 255 255 255 255 255 255 255 255 255 255 255 255 255 255 255 255 255 255 255 255 255 255 255 255 255 255 255 255 255 255 255 255 255 255 254 255 255 253 255 251 251 255 255 222 208 203 164 35 20 147 36 14 255 255 255 255 255 255 155 35 14 255 26 22 178 37 21 200 190 182 149 7 0 154 21 11 232 221 218 255 255 255 255 255 255 177 143 130 217 33 23 237 37 27 233 37 28 240 35 25 238 34 26 245 31 31 158 21 11 230 45 35 239 32 27 237 32 27 236 34 25 229 47 42 156 101 89 255 255 255 
255 255 255 161 51 36 245 31 23 237 38 26 233 30 30 241 37 25 235 28 19 168 112 105 168 116 98 208 61 44 243 32 27 243 27 25 240 31 20 155 94 78 255 255 255 200 172 161 155 0 0 204 39 17 137 37 18 115 7 0 192 157 149 255 255 255 254 252 254 255 255 255 255 255 255 253 255 250 255 255 255 255 255 255 255 255 255 255 255 255 255 255 255 255 255 255 255 255 255 255 255 255 255 255 255 255 255 255 255 255 255 255 255 255 255 255 255 255 255 255 255 255 255 254 255 255 251 255 254 255 254 252 255 255 255 133 62 45 191 159 154 252 255 255 255 255 255 150 32 11 241 46 39 160 64 55 131 48 33 186 50 44 130 38 17 255 255 255 251 254 252 255 255 255 184 149 138 220 21 9 241 33 26 241 39 25 236 37 24 240 44 30 238 41 24 154 10 0 223 31 23 231 36 32 236 35 26 242 35 25 244 31 24 141 20 5 255 255 255 
255 255 255 161 46 39 239 26 26 235 39 27 236 31 28 244 37 23 232 26 18 193 161 160 207 186 183 155 102 90 182 32 21 244 32 28 248 33 20 155 84 74 255 255 255 247 255 254 233 233 225 193 165 159 236 237 235 249 255 255 255 255 255 253 255 255 251 250 254 252 253 254 253 254 254 253 252 254 255 255 255 255 255 255 255 255 255 255 255 255 255 255 255 255 255 255 255 255 255 255 255 255 255 255 255 255 255 255 255 255 255 255 255 255 255 255 255 255 255 255 255 255 255 255 255 255 253 253 254 250 255 255 255 255 255 255 255 255 255 255 255 252 255 254 255 255 255 162 106 91 146 8 0 127 10 0 204 57 38 193 6 0 181 138 130 255 255 255 254 255 253 255 255 255 182 147 142 222 19 8 236 31 29 239 32 25 222 66 56 110 0 0 148 84 69 175 142 128 206 18 14 242 37 27 235 38 27 232 33 30 242 28 31 151 0 0 255 255 255 
255 255 255 160 54 38 241 31 25 239 36 26 244 38 23 230 30 32 245 36 22 141 40 27 255 255 255 255 255 255 147 78 65 205 17 8 134 9 0 200 167 152 247 255 255 255 255 254 255 255 255 255 255 255 255 255 255 255 255 255 255 255 255 255 255 255 255 254 255 255 254 255 255 255 255 254 254 255 255 255 255 255 255 255 255 255 255 255 255 255 255 255 255 255 255 255 255 255 255 255 255 255 255 255 255 255 255 255 255 255 255 255 255 255 255 255 255 255 255 255 255 255 255 255 255 255 255 255 254 254 255 255 255 255 255 255 255 255 255 255 255 255 255 255 250 254 255 255 255 255 211 210 200 230 205 200 162 99 89 192 165 155 240 241 238 255 255 255 255 255 255 255 255 255 179 139 131 222 29 12 241 34 27 211 36 27 153 78 64 206 184 175 238 232 232 231 219 224 212 27 4 242 34 25 236 35 26 236 36 26 246 36 28 155 6 0 255 255 255 
255 255 255 158 53 38 239 30 25 236 37 27 237 35 26 235 33 28 246 35 22 216 50 31 174 133 124 255 255 255 235 231 230 185 149 144 249 249 239 255 255 255 252 253 253 255 255 251 252 255 255 255 255 255 255 255 255 255 255 255 255 255 255 255 255 255 255 255 255 255 255 255 255 255 255 255 255 255 255 255 255 255 255 255 255 255 255 255 255 255 255 255 255 255 255 255 255 255 255 255 255 255 255 255 255 255 255 255 255 255 255 255 255 255 255 255 255 255 255 255 255 255 255 255 255 255 255 255 255 255 255 255 255 255 255 255 255 255 255 255 255 255 255 255 250 253 253 253 254 255 255 255 255 250 255 255 255 255 255 255 255 255 252 255 255 255 255 255 255 255 255 255 255 255 228 218 212 129 0 0 208 35 23 124 13 0 255 255 255 255 255 255 255 255 255 138 77 63 245 43 22 234 33 29 237 36 26 236 36 26 246 36 28 154 6 0 255 255 255 
255 255 255 156 48 33 240 31 26 234 37 27 234 32 29 237 36 26 232 35 29 241 27 23 191 52 33 255 255 255 249 251 253 255 255 255 251 254 255 253 255 254 254 255 254 252 253 254 255 255 254 255 255 255 255 255 255 255 255 255 255 255 255 255 255 255 255 255 255 255 255 255 255 255 255 255 255 255 255 255 255 255 255 255 255 255 255 255 255 255 255 255 255 255 255 255 255 255 255 255 255 255 255 255 255 255 255 255 255 255 255 255 255 255 255 255 255 255 255 255 255 255 255 255 255 255 255 255 255 255 255 255 255 255 255 255 255 255 255 255 255 255 255 255 255 255 253 255 255 253 255 255 253 253 255 253 248 255 254 249 254 255 252 254 255 255 255 255 255 255 255 255 255 255 251 255 255 255 255 255 187 163 153 220 209 200 253 255 255 255 255 255 207 193 185 182 37 25 244 31 24 238 35 26 236 36 27 237 36 26 246 36 28 154 6 0 255 255 255 
255 255 255 164 105 88 214 40 37 243 35 22 235 40 27 237 35 26 234 35 28 246 36 23 223 29 18 198 117 110 255 255 255 255 255 255 255 252 254 255 254 253 254 255 254 254 254 255 255 255 254 255 255 255 255 255 255 255 255 255 255 255 255 255 255 255 255 255 255 255 255 255 255 255 255 255 255 255 255 255 255 255 255 255 255 255 255 255 255 255 255 255 255 255 255 255 255 255 255 255 255 255 255 255 255 255 255 255 255 255 255 255 255 255 255 255 255 255 255 255 255 255 255 255 255 255 255 255 255 255 255 255 255 255 255 255 255 255 255 255 255 255 255 255 254 255 255 254 255 255 255 255 255 255 255 254 255 255 253 255 254 254 255 254 255 255 255 255 255 255 255 255 255 255 252 254 255 251 255 255 255 255 255 255 255 255 250 248 253 255 255 255 200 95 83 236 32 21 240 35 25 233 34 28 240 36 25 232 35 30 244 32 26 157 1 0 255 255 255 
255 255 255 248 255 255 157 37 24 241 31 23 236 35 28 237 35 26 237 36 26 235 35 29 242 31 24 227 42 26 151 93 85 241 239 227 249 255 255 255 255 255 255 255 255 255 255 255 255 255 255 255 255 255 255 255 255 255 255 255 255 255 255 255 255 255 255 255 255 255 255 255 255 255 255 255 255 255 255 255 255 255 255 255 255 255 255 255 255 255 255 255 255 255 255 255 255 255 255 255 255 255 255 255 255 255 255 255 255 255 255 255 255 255 255 255 255 255 255 255 255 255 255 255 255 255 255 255 255 255 255 255 255 255 255 255 255 255 255 255 255 255 255 255 255 255 255 255 255 255 255 255 255 255 255 255 255 255 255 255 255 255 255 255 255 255 255 255 255 255 255 255 255 255 255 255 255 255 255 255 255 255 255 253 255 254 255 255 255 220 180 176 196 17 9 237 38 27 238 37 26 233 35 28 236 35 27 244 34 22 238 51 39 129 46 38 255 255 255 
255 255 255 255 255 255 148 80 65 232 54 41 242 29 23 236 36 27 237 36 26 232 33 29 248 33 21 237 36 23 231 54 41 130 12 0 250 248 238 255 255 255 255 255 255 255 255 255 255 255 255 255 255 255 255 255 255 255 255 255 255 255 255 255 255 255 255 255 255 255 255 255 255 255 255 255 255 255 255 255 255 255 255 255 255 255 255 255 255 255 255 255 255 255 255 255 255 255 255 255 255 255 255 255 255 255 255 255 255 255 255 255 255 255 255 255 255 255 255 255 255 255 255 255 255 255 255 255 255 255 255 255 255 255 255 255 255 255 255 255 255 255 255 255 255 255 255 255 255 255 255 255 255 255 255 255 255 255 255 255 255 255 255 255 255 255 255 255 255 255 255 255 255 255 255 255 255 255 255 255 255 255 255 250 255 255 163 111 94 221 53 44 245 32 20 235 39 27 235 36 27 239 37 25 229 34 31 248 32 20 185 48 35 214 201 199 255 255 255 
255 255 255 255 255 255 247 244 240 145 39 32 244 36 23 244 36 24 241 35 24 241 39 27 247 36 26 235 36 31 247 30 23 254 51 47 115 0 0 255 255 255 255 255 255 255 255 255 255 255 255 255 255 255 255 255 255 255 255 255 255 255 255 255 255 255 255 255 255 255 255 255 255 255 255 255 255 255 255 255 255 255 255 255 255 255 255 255 255 255 255 255 255 255 255 255 255 255 255 255 255 255 255 255 255 255 255 255 255 255 255 255 255 255 255 255 255 255 255 255 255 255 255 255 255 255 255 255 255 255 255 255 255 255 255 255 255 255 255 255 255 255 255 255 255 255 255 255 255 255 255 255 255 255 255 255 255 255 255 255 255 255 255 255 255 255 255 255 255 255 255 255 255 255 254 253 255 255 255 255 255 255 255 128 40 18 222 55 43 232 28 25 241 39 24 237 38 26 237 39 26 235 41 26 235 35 26 245 44 30 134 41 28 255 255 255 253 254 252 
255 255 255 255 251 255 255 255 255 188 153 143 182 48 35 220 18 9 224 30 22 175 15 6 163 4 0 165 5 0 165 5 0 174 3 0 109 0 0 255 255 255 255 255 255 255 255 255 255 255 255 255 255 255 255 255 255 255 255 255 255 255 255 255 255 255 255 255 255 255 255 255 255 255 255 255 255 255 255 255 255 255 255 255 255 255 255 255 255 255 255 255 255 255 255 255 255 255 255 255 255 255 255 255 255 255 255 255 255 255 255 255 255 255 255 255 255 255 255 255 255 255 255 255 255 255 255 255 255 255 255 255 255 255 255 255 255 255 255 255 255 255 255 255 255 255 255 255 255 255 255 255 255 255 255 255 255 255 255 255 255 255 255 255 255 255 255 255 255 255 255 255 255 255 253 255 254 255 255 255 131 39 24 227 54 46 253 26 23 244 33 28 241 37 29 240 33 29 240 30 26 240 30 26 243 27 22 171 48 39 211 193 184 255 255 255 254 254 254 
255 255 255 252 252 255 253 255 255 255 255 255 197 176 164 182 136 126 176 130 121 227 217 214 253 255 255 250 255 255 249 255 255 246 255 255 232 224 225 255 255 252 255 255 255 255 255 255 255 255 255 255 255 255 255 255 255 255 255 255 255 255 255 255 255 255 255 255 255 255 255 255 255 255 255 255 255 255 255 255 255 255 255 255 255 255 255 255 255 255 255 255 255 255 255 255 255 255 255 255 255 255 255 255 255 255 255 255 255 255 255 255 255 255 255 255 255 255 255 255 255 255 255 255 255 255 255 255 255 255 255 255 255 255 255 255 255 255 255 255 255 255 255 255 255 255 255 255 255 255 255 255 255 255 255 255 255 255 255 255 255 255 255 255 255 255 255 255 255 255 255 255 255 255 252 255 255 255 255 255 127 21 2 168 0 0 172 1 0 160 7 0 159 5 0 172 10 0 222 40 23 225 24 9 203 54 42 154 94 85 255 255 255 255 255 255 254 254 254 
255 255 255 254 255 254 255 251 252 249 250 255 255 255 255 255 255 255 255 255 255 255 255 255 255 255 255 255 255 255 255 255 255 253 255 255 255 255 255 255 255 254 255 255 255 255 255 255 255 255 255 255 255 255 255 255 255 255 255 255 255 255 255 255 255 255 255 255 255 255 255 255 255 255 255 255 255 255 255 255 255 255 255 255 255 255 255 255 255 255 255 255 255 255 255 255 255 255 255 255 255 255 255 255 255 255 255 255 255 255 255 255 255 255 255 255 255 255 255 255 255 255 255 255 255 255 255 255 255 255 255 255 255 255 255 255 255 255 255 255 255 255 255 255 255 255 255 255 255 255 255 255 255 255 255 255 255 255 255 255 255 255 255 255 255 255 255 255 255 255 255 254 255 255 251 253 254 255 255 254 229 220 224 249 255 252 247 255 251 246 255 254 248 255 253 240 235 233 168 129 123 177 132 122 179 149 140 255 255 255 248 254 255 255 255 255 255 255 255 
255 255 255 255 255 255 255 255 255 255 255 255 255 255 255 255 255 255 255 255 255 255 255 255 255 255 255 255 255 255 255 255 255 255 255 255 255 255 255 255 255 255 255 255 255 255 255 255 255 255 255 255 255 255 255 255 255 255 255 255 255 255 255 255 255 255 255 255 255 255 255 255 255 255 255 255 255 255 255 255 255 255 255 255 255 255 255 255 255 255 255 255 255 255 255 255 255 255 255 255 255 255 255 255 255 255 255 255 255 255 255 255 255 255 255 255 255 255 255 255 255 255 255 255 255 255 255 255 255 255 255 255 255 255 255 255 255 255 255 255 255 255 255 255 255 255 255 255 255 255 255 255 255 255 255 255 255 255 255 255 255 255 255 255 255 255 255 255 255 255 255 255 255 255 255 255 255 255 255 255 255 255 255 255 255 255 255 255 255 255 255 255 255 255 255 255 255 255 255 255 255 255 255 255 255 255 255 255 255 255 255 255 255 255 255 255 255 255 255 
