P3
5 5
255
255 183 219 255 183 219 126 0 66 255 250 255 0 0 0 
0 0 0 255 183 219 0 0 0 126 0 66 0 0 0 
134 0 0 0 0 0 255 183 219 126 0 66 255 250 255 
0 0 0 255 183 219 0 0 0 126 0 66 0 0 0 
255 183 219 255 183 219 126 0 66 255 250 255 0 0 0 
