P3
4 5
255
0 0 0 255 250 255 0 0 0 0 0 0 
255 250 255 126 0 66 126 0 66 255 250 255 
126 0 66 0 0 0 0 0 0 126 0 66 
255 183 219 255 183 219 255 183 219 255 183 219 
255 183 219 134 0 0 0 0 0 255 183 219 
